<svg width="121" height="33" viewBox="0 0 121 33" fill="none" xmlns="http://www.w3.org/2000/svg">
<g clip-path="url(#clip0_15_319)">
<path d="M-12.1831 29.8277C-12.4774 29.1091 -12.7533 28.3537 -13.0475 27.7088L-14.4086 24.6318L-14.4637 24.5765C-18.51 15.7324 -22.8322 6.74099 -27.4118 -2.10307L-27.5958 -2.47158C-28.0556 -3.33756 -28.5154 -4.29566 -28.9936 -5.18007C-29.5821 -6.2303 -30.1523 -7.35424 -31.0903 -8.42289C-32.0046 -9.54106 -33.1553 -10.4419 -34.4593 -11.0605C-35.7634 -11.6791 -37.1882 -12 -38.6311 -12C-40.0739 -12 -41.4988 -11.6791 -42.8028 -11.0605C-44.1069 -10.4419 -45.2576 -9.54106 -46.1719 -8.42289C-47.0363 -7.35424 -47.6801 -6.2303 -48.2686 -5.18007C-48.7284 -4.22196 -49.1882 -3.28228 -49.6664 -2.4163L-49.8503 -2.0478C-54.3564 6.79626 -58.7522 15.7877 -62.7984 24.6318L-62.9088 24.7423C-63.3134 25.7004 -63.7916 26.6954 -64.2514 27.7641C-64.5457 28.4089 -64.84 29.1091 -65.1343 29.8829C-65.9287 31.9093 -66.1824 34.1081 -65.8704 36.2626C-65.5583 38.4171 -64.6912 40.453 -63.3545 42.1696C-62.0179 43.8862 -60.2578 45.2242 -58.2478 46.0518C-56.2378 46.8794 -54.0472 47.1681 -51.8919 46.8893C-49.8256 46.6169 -47.8359 45.9274 -46.0431 44.8626C-43.6522 43.5175 -41.3531 41.5645 -38.7782 38.7454C-36.2033 41.5645 -33.8491 43.5175 -31.5133 44.881C-29.2671 46.2018 -26.7233 46.9308 -24.1196 46.9999C-21.1045 47.0124 -18.1867 45.9318 -15.9048 43.9574C-13.6229 41.983 -12.1312 39.2482 -11.7049 36.258C-11.2123 34.1093 -11.379 31.8615 -12.1831 29.8092V29.8277ZM-38.5943 32.8862C-41.7578 28.8327 -43.8177 25.1108 -44.5166 21.9233C-44.8062 20.7421 -44.8686 19.5165 -44.7005 18.312C-44.5718 17.3723 -44.2223 16.5432 -43.7441 15.843C-42.6406 14.24 -40.7094 13.2451 -38.5943 13.2451C-37.5898 13.2143 -36.5935 13.4339 -35.6946 13.8841C-34.7958 14.3344 -34.0226 15.0011 -33.4445 15.8246C-32.9663 16.5616 -32.6168 17.3723 -32.5065 18.312C-32.3226 19.3806 -32.3961 20.6151 -32.6904 21.9233C-33.3893 25.0556 -35.4492 28.8143 -38.5943 32.8862ZM-15.1626 35.6132C-15.3716 37.1313 -15.974 38.5681 -16.9098 39.7804C-17.8457 40.9926 -19.0822 41.9381 -20.4964 42.5226C-21.8942 43.1122 -23.4391 43.278 -24.9473 43.1122C-26.4187 42.9279 -27.89 42.4489 -29.3982 41.5645C-31.9023 40.014 -34.154 38.0876 -36.0746 35.8527C-32.2122 31.0622 -29.8764 26.6954 -28.9936 22.8077C-28.5706 20.9652 -28.5154 19.3069 -28.6993 17.7776C-28.929 16.3281 -29.4685 14.9454 -30.281 13.7241C-31.2087 12.3998 -32.447 11.3241 -33.887 10.5916C-35.3269 9.85911 -36.9245 9.49221 -38.5391 9.52318C-41.9417 9.52318 -44.9764 11.1077 -46.8156 13.7057C-47.6436 14.9239 -48.1787 16.3176 -48.379 17.7776C-48.6181 19.3253 -48.5629 21.0389 -48.0847 22.8077C-47.2019 26.6954 -44.8109 31.1174 -41.0037 35.8895C-42.8917 38.1672 -45.1486 40.1105 -47.6801 41.6382C-49.2066 42.5226 -50.6596 42.9832 -52.131 43.1675C-54.4192 43.4611 -56.7306 42.8381 -58.5628 41.4339C-60.395 40.0297 -61.5999 37.9577 -61.9156 35.6684C-62.0995 34.1944 -61.9708 32.7204 -61.3822 31.0622C-61.1983 30.4726 -60.9224 29.8829 -60.6282 29.1828C-60.2235 28.2247 -59.7453 27.2297 -59.2855 26.2348L-59.212 26.1058C-55.2393 17.317 -50.8987 8.34397 -46.3926 -0.444813L-46.2087 -0.813313C-45.7489 -1.69772 -45.2891 -2.6374 -44.8109 -3.52181C-44.3327 -4.46149 -43.8177 -5.36432 -43.1556 -6.10133C-42.5824 -6.7867 -41.8663 -7.33789 -41.0576 -7.71607C-40.2489 -8.09426 -39.3672 -8.29025 -38.4748 -8.29025C-37.5823 -8.29025 -36.7006 -8.09426 -35.8919 -7.71607C-35.0832 -7.33789 -34.3671 -6.7867 -33.7939 -6.10133C-33.1502 -5.36432 -32.6168 -4.46149 -32.1386 -3.52181C-31.6788 -2.6374 -31.219 -1.67929 -30.7408 -0.813313L-30.5569 -0.444813C-26.0692 8.34397 -21.7286 17.317 -17.6824 26.1058L-17.6272 26.1611C-17.149 27.1192 -16.7444 28.1878 -16.2846 29.1091C-15.9903 29.8277 -15.696 30.3988 -15.5121 31.0069C-15.1626 32.6651 -14.9787 34.1391 -15.1626 35.6132ZM10.4393 32.4809C9.05339 32.5012 7.68069 32.2087 6.42303 31.625C5.16537 31.0412 4.05504 30.1814 3.17439 29.1091C1.1955 26.8243 0.145256 23.8783 0.231644 20.8546C0.201363 17.7651 1.28553 14.7685 3.28475 12.4159C4.20951 11.33 5.36066 10.4603 6.65716 9.86823C7.95365 9.27613 9.36396 8.97595 10.7888 8.98885C12.1294 8.95209 13.4574 9.25749 14.6478 9.87634C15.8383 10.4952 16.8521 11.4071 17.5939 12.5265L17.7778 9.63373H23.1483V31.8913H17.7594L17.5755 28.6485C16.8107 29.8436 15.7536 30.8231 14.5046 31.4939C13.2556 32.1646 11.8562 32.5044 10.4393 32.4809ZM11.8371 27.1745C12.9039 27.1745 13.8419 26.8797 14.7247 26.3453C15.534 25.7557 16.1961 24.9819 16.7111 24.0422C17.1709 23.1025 17.41 21.9786 17.41 20.7257C17.4817 19.6375 17.2702 18.5493 16.7963 17.5675C16.3224 16.5856 15.6023 15.7439 14.7063 15.1244C13.8454 14.5871 12.8514 14.3022 11.8371 14.3022C10.8228 14.3022 9.82882 14.5871 8.96794 15.1244C8.15868 15.714 7.49657 16.4879 6.98158 17.4276C6.49521 18.4639 6.25594 19.5993 6.28268 20.7441C6.21098 21.8323 6.42241 22.9205 6.89632 23.9023C7.37022 24.8841 8.09037 25.7259 8.98633 26.3453C9.85076 26.8797 10.7888 27.1745 11.8371 27.1745ZM32.3444 3.62714C32.3444 4.27202 32.2341 4.86163 31.9398 5.34068C31.6455 5.80131 31.2409 6.22508 30.7075 6.51989C30.1742 6.81469 29.604 6.92524 29.0154 6.92524C28.4269 6.92524 27.8383 6.81469 27.305 6.51989C26.8005 6.23855 26.3763 5.83262 26.0727 5.34068C25.7879 4.81581 25.6482 4.22423 25.6681 3.62714C25.6681 2.96384 25.7968 2.37423 26.0727 1.9136C26.367 1.36085 26.79 1.0292 27.305 0.734396C27.8383 0.439594 28.4085 0.310617 29.0154 0.310617C29.6009 0.297103 30.1798 0.436008 30.6956 0.713751C31.2114 0.991493 31.6465 1.39857 31.9582 1.89518C32.2259 2.43236 32.3585 3.02692 32.3444 3.62714ZM26.0911 31.8176V9.59688H31.9398V31.8544H26.0727L26.0911 31.8176ZM47.5732 15.4192V15.4929C47.2973 15.3639 46.9295 15.3087 46.6536 15.2534C46.2857 15.1797 45.9914 15.1797 45.642 15.1797C44.0051 15.1797 42.7728 15.6587 41.9636 16.6537C41.0807 17.6671 40.6761 19.0858 40.6761 20.9099V31.836H34.809V9.57845H40.1979L40.3818 12.9503C40.9704 11.771 41.6693 10.8866 42.6625 10.2233C43.6504 9.57886 44.8134 9.257 45.9915 9.30208C46.4145 9.30208 46.8191 9.33893 47.1685 9.41263C47.3525 9.46791 47.4628 9.46791 47.5732 9.52318V15.4192ZM49.9274 31.8176V0.458019H55.7761V12.4344C56.6038 11.3657 57.5418 10.5366 58.7189 9.89168C60.5823 8.97638 62.6993 8.71675 64.7282 9.15467C66.757 9.59259 68.5794 10.7025 69.9013 12.3054C71.8846 14.5949 72.9351 17.5483 72.8441 20.5783C72.8744 23.6678 71.7902 26.6644 69.791 29.017C68.8662 30.1029 67.715 30.9726 66.4185 31.5647C65.1221 32.1568 63.7118 32.4569 62.287 32.444C60.9463 32.4808 59.6183 32.1754 58.4279 31.5566C57.2374 30.9377 56.2237 30.0257 55.4818 28.9064L55.2979 31.7992L49.9274 31.8544V31.8176ZM61.2386 27.1745C62.287 27.1745 63.225 26.8797 64.1078 26.3453C64.917 25.7557 65.5792 24.9819 66.0941 24.0422C66.5723 23.1025 66.793 21.9786 66.793 20.7257C66.793 19.4912 66.5723 18.3672 66.0941 17.4276C65.6111 16.5215 64.9326 15.7347 64.1078 15.1244C63.2469 14.5871 62.2529 14.3022 61.2386 14.3022C60.2243 14.3022 59.2303 14.5871 58.3694 15.1244C57.5418 15.714 56.898 16.4879 56.3647 17.4276C55.8783 18.4639 55.639 19.5993 55.6657 20.7441C55.594 21.8323 55.8055 22.9205 56.2794 23.9023C56.7533 24.8841 57.4734 25.7259 58.3694 26.3453C59.2338 26.8797 60.1719 27.1745 61.2386 27.1745ZM75.0511 31.836V9.57845H80.44L80.624 12.4712C81.3012 11.3624 82.2618 10.4549 83.4065 9.84264C84.5511 9.23041 85.8383 8.93565 87.1348 8.98885C88.6174 8.9632 90.0747 9.376 91.3243 10.1756C92.5739 10.9753 93.5605 12.1262 94.1606 13.4846C94.8044 14.8849 95.1538 16.6169 95.1538 18.5515V31.8913H89.2867V19.3253C89.2867 17.7776 88.9372 16.5616 88.2383 15.6587C87.5394 14.7743 86.583 14.2953 85.3692 14.2953C84.4863 14.2953 83.7139 14.4795 83.0334 14.8849C82.3896 15.3087 81.8563 15.843 81.4516 16.5984C81.0425 17.3621 80.8396 18.2195 80.8631 19.0858V31.836H75.0511ZM98.0782 31.836V0.439593H103.945V12.4159C104.74 11.3413 105.774 10.4671 106.965 9.86257C108.156 9.25809 109.471 8.94 110.806 8.93358C112.192 8.91327 113.564 9.20581 114.822 9.78951C116.08 10.3732 117.19 11.2331 118.071 12.3054C120.04 14.5947 121.083 17.5391 120.995 20.5598C121.027 23.6496 119.942 26.6468 117.942 28.9985C117.017 30.0845 115.866 30.9541 114.569 31.5462C113.273 32.1383 111.863 32.4385 110.438 32.4256C109.097 32.4624 107.769 32.157 106.579 31.5381C105.388 30.9193 104.374 30.0073 103.633 28.888L103.467 31.7807L98.0782 31.836ZM109.445 27.1745C110.511 27.1745 111.449 26.8797 112.314 26.3453C113.141 25.7557 113.785 24.9819 114.319 24.0422C114.778 23.1025 115.017 21.9786 115.017 20.7257C115.089 19.6375 114.878 18.5493 114.404 17.5675C113.93 16.5856 113.21 15.7439 112.314 15.1244C111.453 14.5871 110.459 14.3022 109.445 14.3022C108.43 14.3022 107.436 14.5871 106.575 15.1244C105.766 15.714 105.104 16.4879 104.589 17.4276C104.076 18.4546 103.835 19.5968 103.89 20.7441C103.818 21.8323 104.03 22.9205 104.504 23.9023C104.978 24.8841 105.698 25.7259 106.594 26.3453C107.458 26.8797 108.341 27.1745 109.445 27.1745Z" fill="#FF385C"/>
</g>
<defs>
<clipPath id="clip0_15_319">
<rect width="121" height="33" fill="white"/>
</clipPath>
</defs>
</svg>
