<svg width="42" height="63" viewBox="0 0 42 63" fill="none" xmlns="http://www.w3.org/2000/svg">
<path fill-rule="evenodd" clip-rule="evenodd" d="M21.0413 31.4984C21.0413 25.81 25.6526 21.1987 31.3409 21.1987C37.0292 21.1987 41.6405 25.81 41.6405 31.4984C41.6405 37.1867 37.0292 41.798 31.3409 41.798C25.6526 41.798 21.0413 37.1867 21.0413 31.4984Z" fill="#1ABCFE"/>
<path fill-rule="evenodd" clip-rule="evenodd" d="M0.441895 52.0975C0.441895 46.4092 5.05319 41.7979 10.7415 41.7979H21.0411V52.0975C21.0411 57.7858 16.4298 62.3971 10.7415 62.3971C5.05319 62.3971 0.441895 57.7858 0.441895 52.0975Z" fill="#0ACF83"/>
<path fill-rule="evenodd" clip-rule="evenodd" d="M21.0413 0.599365V21.1986H31.3409C37.0292 21.1986 41.6405 16.5873 41.6405 10.899C41.6405 5.21066 37.0292 0.599365 31.3409 0.599365H21.0413Z" fill="#FF7262"/>
<path fill-rule="evenodd" clip-rule="evenodd" d="M0.441895 10.899C0.441895 16.5873 5.05319 21.1986 10.7415 21.1986H21.0411V0.599365H10.7415C5.05319 0.599365 0.441895 5.21067 0.441895 10.899Z" fill="#F24E1E"/>
<path fill-rule="evenodd" clip-rule="evenodd" d="M0.441895 31.4984C0.441895 37.1867 5.05319 41.798 10.7415 41.798H21.0411V21.1987H10.7415C5.05319 21.1987 0.441895 25.81 0.441895 31.4984Z" fill="#A259FF"/>
</svg>
