<svg width="63" height="63" viewBox="0 0 63 63" fill="none" xmlns="http://www.w3.org/2000/svg">
<path d="M31.375 0.337158C14.3121 0.337158 0.47583 14.521 0.47583 32.0183C0.47583 46.0159 9.32937 57.8913 21.6065 62.0805C23.1508 62.3737 23.7177 61.3932 23.7177 60.5564C23.7177 59.801 23.6891 57.3053 23.6758 54.658C15.0796 56.5745 13.2657 50.9201 13.2657 50.9201C11.8601 47.2582 9.83491 46.2845 9.83491 46.2845C7.03143 44.3182 10.0462 44.3586 10.0462 44.3586C13.149 44.5821 14.7828 47.6233 14.7828 47.6233C17.5387 52.4667 22.0113 51.0664 23.7745 50.257C24.0518 48.2093 24.8526 46.8117 25.7363 46.0206C18.8732 45.2195 11.6585 42.503 11.6585 30.3636C11.6585 26.9048 12.8656 24.0786 14.8422 21.86C14.5214 21.062 13.4637 17.8398 15.1415 13.4759C15.1415 13.4759 17.7362 12.6244 23.641 16.7233C26.1057 16.0214 28.749 15.6694 31.375 15.6573C34.0009 15.6694 36.6463 16.0214 39.1156 16.7233C45.0132 12.6244 47.6043 13.4759 47.6043 13.4759C49.2862 17.8398 48.2281 21.062 47.9072 21.86C49.8884 24.0786 51.0873 26.9048 51.0873 30.3636C51.0873 42.5318 43.8588 45.2111 36.9783 45.9954C38.0866 46.9786 39.0742 48.9066 39.0742 51.8623C39.0742 56.1013 39.0383 59.5129 39.0383 60.5564C39.0383 61.3995 39.5945 62.3874 41.1608 62.0763C53.4313 57.8824 62.2736 46.0111 62.2736 32.0183C62.2736 14.521 48.4394 0.337158 31.375 0.337158Z" fill="white"/>
</svg>
