<svg width="110" height="35" viewBox="0 0 110 35" fill="none" xmlns="http://www.w3.org/2000/svg">
<path d="M46.8105 17.9488C46.8105 22.807 42.7705 26.3869 37.8124 26.3869C32.8543 26.3869 28.8142 22.807 28.8142 17.9488C28.8142 13.0565 32.8543 9.5108 37.8124 9.5108C42.7705 9.5108 46.8105 13.0565 46.8105 17.9488ZM42.8716 17.9488C42.8716 14.913 40.53 12.8358 37.8124 12.8358C35.0947 12.8358 32.7532 14.913 32.7532 17.9488C32.7532 20.9543 35.0947 23.0619 37.8124 23.0619C40.53 23.0619 42.8716 20.9505 42.8716 17.9488Z" fill="#EA4335"/>
<path d="M66.2224 17.9488C66.2224 22.807 62.1823 26.3869 57.2242 26.3869C52.2661 26.3869 48.2261 22.807 48.2261 17.9488C48.2261 13.0603 52.2661 9.5108 57.2242 9.5108C62.1823 9.5108 66.2224 13.0565 66.2224 17.9488ZM62.2834 17.9488C62.2834 14.913 59.9419 12.8358 57.2242 12.8358C54.5066 12.8358 52.165 14.913 52.165 17.9488C52.165 20.9543 54.5066 23.0619 57.2242 23.0619C59.9419 23.0619 62.2834 20.9505 62.2834 17.9488Z" fill="#FBBC05"/>
<path d="M84.8252 10.0206V25.1695C84.8252 31.401 80.9186 33.9461 76.3002 33.9461C71.9528 33.9461 69.3363 31.2108 68.3495 28.9738L71.7789 27.6309C72.3896 29.0043 73.8859 30.6249 76.2962 30.6249C79.2524 30.6249 81.0844 28.9092 81.0844 25.6793V24.4657H80.9469C80.0653 25.4891 78.3668 26.3831 76.2234 26.3831C71.7385 26.3831 67.6296 22.7081 67.6296 17.9793C67.6296 13.2162 71.7385 9.5108 76.2234 9.5108C78.3627 9.5108 80.0613 10.4048 80.9469 11.3978H81.0844V10.0244H84.8252V10.0206ZM81.3635 17.9793C81.3635 15.0081 79.2565 12.8358 76.5752 12.8358C73.8576 12.8358 71.5807 15.0081 71.5807 17.9793C71.5807 20.92 73.8576 23.0619 76.5752 23.0619C79.2565 23.0619 81.3635 20.92 81.3635 17.9793Z" fill="#4285F4"/>
<path d="M90.9925 1.1413V25.8696H87.1506V1.1413H90.9925Z" fill="#34A853"/>
<path d="M105.964 20.726L109.021 22.6434C108.035 24.0168 105.657 26.3831 101.548 26.3831C96.4522 26.3831 92.6467 22.6777 92.6467 17.9451C92.6467 12.9271 96.4846 9.50702 101.107 9.50702C105.762 9.50702 108.039 12.9918 108.783 14.875L109.191 15.8337L97.2004 20.5054C98.1184 22.1983 99.546 23.0619 101.548 23.0619C103.554 23.0619 104.945 22.1337 105.964 20.726ZM96.5533 17.6902L104.569 14.5592C104.128 13.5054 102.802 12.7712 101.24 12.7712C99.2386 12.7712 96.4522 14.4337 96.5533 17.6902Z" fill="#EA4335"/>
<path d="M14.2719 15.7538V12.1739H27.0958C27.2211 12.7978 27.2858 13.5358 27.2858 14.3348C27.2858 17.0206 26.5053 20.3418 23.9899 22.7081C21.5432 25.1049 18.4171 26.3831 14.2759 26.3831C6.60016 26.3831 0.145752 20.5016 0.145752 13.2809C0.145752 6.06029 6.60016 0.178772 14.2759 0.178772C18.5222 0.178772 21.5472 1.74616 23.82 3.7891L21.1347 6.31519C19.5049 4.87714 17.2969 3.75866 14.2719 3.75866C8.66671 3.75866 4.28288 8.00812 4.28288 13.2809C4.28288 18.5538 8.66671 22.8032 14.2719 22.8032C17.9075 22.8032 19.9781 21.4299 21.3046 20.182C22.3803 19.1701 23.088 17.7244 23.3671 15.75L14.2719 15.7538Z" fill="#4285F4"/>
</svg>
