<svg width="116" height="33" viewBox="0 0 116 33" fill="none" xmlns="http://www.w3.org/2000/svg">
<path d="M15.8276 30.8729C14.096 31.1955 12.334 31.2922 10.5113 31.5497L4.95174 14.2764V32.2911C3.22019 32.4844 1.6405 32.7422 0 33V0H4.61777L10.9365 18.7239V0H15.8276V30.8729ZM25.3971 12.085C27.2807 12.085 30.1667 11.9883 31.8983 11.9883V17.1444C29.7412 17.1444 27.2199 17.1444 25.3971 17.2411V24.9112C28.2528 24.7179 31.1085 24.4598 33.9943 24.3631V29.3257L20.5363 30.4539V0H33.9943V5.15626H25.3971V12.085ZM52.07 5.15638H47.0271V28.8751C45.3866 28.8751 43.7461 28.8751 42.1666 28.9394V5.15638H37.1237V0H52.0702L52.07 5.15638ZM59.9685 11.7306H66.6217V16.8867H59.9685V28.5851H55.1987V0H68.7786V5.15626H59.9685V11.7306ZM76.6771 24.0732C79.4417 24.1375 82.2365 24.3635 84.9403 24.5243V29.6162C80.5962 29.326 76.2519 29.0363 71.8166 28.9394V0H76.6771V24.0732ZM89.0415 29.9707C90.5908 30.0675 92.2313 30.1642 93.811 30.3573V0H89.0415V29.9707ZM115.107 0L108.94 15.6944L115.107 33C113.284 32.7422 111.461 32.3877 109.639 32.0654L106.145 22.5265L102.591 31.2922C100.829 30.9696 99.1275 30.8729 97.3658 30.6151L103.624 15.5008L97.9732 0H103.198L106.388 8.66897L109.791 0H115.107V0Z" fill="#E30A17"/>
</svg>
