<svg width="51" height="50" viewBox="0 0 51 50" fill="none" xmlns="http://www.w3.org/2000/svg">
<rect x="0.542969" y="0.00366211" width="50" height="50" fill="#FF26BE"/>
<rect x="2.32886" y="1.78955" width="46.4286" height="46.4286" fill="#2E001F"/>
<path d="M28.095 39.0206L21.8298 26.4966L27.8133 13.959C27.926 13.7694 27.8584 13.6272 27.678 13.6272H24.0483C23.8309 13.6272 23.7383 13.7741 23.6425 13.9353L19.4942 23.4155L15.2332 13.9116C15.143 13.6983 15.0528 13.6509 14.8274 13.6509H10.9496C10.8144 13.6509 10.6791 13.7931 10.8144 13.9827L16.7888 26.4966L10.555 39.0443C10.4422 39.1865 10.4648 39.3761 10.6902 39.3761H14.4102C14.5905 39.3761 14.7032 39.305 14.816 39.1154L19.2011 29.2932L23.5634 39.0917C23.6761 39.3287 23.7889 39.3761 24.0369 39.3761H27.9597C28.1401 39.3761 28.2077 39.2102 28.095 39.0206Z" fill="#FF26BE"/>
<path fill-rule="evenodd" clip-rule="evenodd" d="M38.2966 20.1206C32.7506 20.1206 29.2561 24.4341 29.2561 29.9563C29.2561 36.4028 32.7069 39.3998 37.5991 39.3761C39.4929 39.3761 41.5206 39.1284 43.4144 38.1803C43.5496 38.1092 43.5947 38.0618 43.5947 37.9196C43.482 37.0427 43.482 36.2369 43.482 35.597V13.8399C43.482 13.7214 43.4369 13.6503 43.2565 13.6503H39.6944C39.5817 13.6503 39.469 13.7451 39.469 13.8873V20.168C39.0181 20.1206 38.7701 20.1206 38.2966 20.1206ZM38.1614 23.6519C38.7025 23.6519 39.1534 23.7467 39.469 23.8889V35.6207C39.0406 35.8103 38.4545 35.8814 37.9134 35.8814C35.3658 35.8814 33.3367 34.1276 33.3367 29.7667C33.3367 25.9509 35.3207 23.6519 38.1614 23.6519Z" fill="#FF26BE"/>
</svg>
