<svg id="header-logo" xmlns="http://www.w3.org/2000/svg" width="138.751" height="39.867" viewBox="0 0 138.751 39.867">
  <g id="Group_2816" data-name="Group 2816" transform="translate(64.168 19.218)" opacity="0.5">
    <path id="Path_4202" data-name="Path 4202" d="M126.972,21.328v-.784h-2.016a.92.92,0,0,1-.112-.784.744.744,0,0,1,.448-.56.92.92,0,0,1,.784-.112.849.849,0,0,1,.448.224c.112.112.224.112.224.224l.336-.56a1.546,1.546,0,0,0-.448-.336l-.672-.336a1.641,1.641,0,0,0-1.232.224,1.741,1.741,0,0,0-.672.9,1.3,1.3,0,0,0,.224,1.12H123.5v.784Z" transform="translate(-52.501 -18.261)" fill="#000603"/>
    <rect id="Rectangle_2240" data-name="Rectangle 2240" width="1.456" height="1.68" transform="translate(16.462 0.94)" fill="#000603"/>
    <path id="Path_4203" data-name="Path 4203" d="M118.967,23.2a4.229,4.229,0,0,0-3.36,1.232,6.1,6.1,0,0,0-1.008,3.92c0,1.792.9,4.144,3.584,4.144a6.267,6.267,0,0,0,3.024-.9v1.792h0V33.5a1.9,1.9,0,0,1-.448,1.456,1.438,1.438,0,0,1-1.12.448c-1.008,0-2.128-.112-3.248-.224l-.56-.112-.112,1.12a16.609,16.609,0,0,0,3.808.448,3.267,3.267,0,0,0,2.464-.784,3.7,3.7,0,0,0,.784-2.352V23.648c-.672-.112-1.456-.336-1.68-.336A14.278,14.278,0,0,0,118.967,23.2Zm2.128,7.167-.336.224c-.224.112-.672.224-1.12.448a5.778,5.778,0,0,1-1.232.224c-.784,0-2.352-.112-2.352-2.8a5.5,5.5,0,0,1,.672-3.024,2.779,2.779,0,0,1,2.24-.9c.448,0,1.232.112,2.128.224Z" transform="translate(-53.567 -17.669)" fill="#000603"/>
    <rect id="Rectangle_2241" data-name="Rectangle 2241" width="1.456" height="9.855" transform="translate(72.007 4.971)" fill="#000603"/>
    <rect id="Rectangle_2242" data-name="Rectangle 2242" width="1.456" height="13.886" transform="translate(11.535 0.94)" fill="#000603"/>
    <path id="Path_4204" data-name="Path 4204" d="M99.589,23.384a6.9,6.9,0,0,0-3.808.784l-.112.112a3.108,3.108,0,0,0-1.232,2.688V31H76.52V22.6H75.064V33.575a3.367,3.367,0,0,1-.448,2.016A8.915,8.915,0,0,1,72.6,37.158l.56,1.12a8.286,8.286,0,0,0,2.688-1.9,4.533,4.533,0,0,0,.672-2.688v-1.12H103.06c.112-.672.336-1.456.336-1.68C104.516,26.072,103.06,23.384,99.589,23.384Zm2.576,7.727H95.781v-3.92a1.787,1.787,0,0,1,.9-1.568,6.031,6.031,0,0,1,2.912-.56C102.052,24.952,103.06,27.079,102.164,31.111Z" transform="translate(-58.602 -17.741)" fill="#000603"/>
    <path id="Path_4205" data-name="Path 4205" d="M63.124,23.3h-.56v1.456h.56a5.5,5.5,0,0,1,3.024.672c.56.448,1.456,2.016.672,5.487H60.1v1.456h7.727c.112-.672.336-1.456.336-1.68.784-3.808-.224-5.711-1.008-6.383A6.684,6.684,0,0,0,63.124,23.3Z" transform="translate(-60.1 -17.657)" fill="#000603"/>
    <path id="Path_4206" data-name="Path 4206" d="M110.987,34.554a2.6,2.6,0,0,1-1.008,2.128,4.223,4.223,0,0,1-2.352.784,4.642,4.642,0,0,1-1.792-.336,2.694,2.694,0,0,1-1.68-2.464,11.074,11.074,0,0,1,.112-1.68h-1.456a11.073,11.073,0,0,0-.112,1.68,3.687,3.687,0,0,0,.672,2.128,4.672,4.672,0,0,0,1.792,1.456,6.221,6.221,0,0,0,2.576.56,5.194,5.194,0,0,0,2.352-.448,4.454,4.454,0,0,0,1.792-1.344,3.554,3.554,0,0,0,.672-2.24V19.1H111.1V34.554Z" transform="translate(-54.994 -18.16)" fill="#000603"/>
  </g>
  <g id="Group_2817" data-name="Group 2817" transform="translate(38.859 0.784)">
    <path id="Path_4207" data-name="Path 4207" d="M37.5,15.91,40.972,1.8h4.591l3.472,14.11H46.683L45.9,12.887H40.524L39.74,15.91ZM42.763,3.816l-1.792,7.167h4.479l-1.68-7.167Z" transform="translate(-37.5 -1.8)" fill="#000603"/>
    <path id="Path_4208" data-name="Path 4208" d="M48,5.3h2.24l1.568,8.4h.448l1.9-8.4h2.352l1.9,8.4h.448l1.568-8.4h2.24L60.543,15.6H56.959L55.391,8.324,53.823,15.6H50.24Z" transform="translate(-36.241 -1.38)" fill="#000603"/>
    <path id="Path_4209" data-name="Path 4209" d="M70.487,8.472v4.7a.792.792,0,0,0,.9.9l-.112,1.68a3.679,3.679,0,0,1-2.688-.784,7.372,7.372,0,0,1-3.36.784c-2.016,0-3.024-1.12-3.024-3.248a2.737,2.737,0,0,1,.784-2.24,4.976,4.976,0,0,1,2.576-.9l2.688-.224V8.472a1.486,1.486,0,0,0-.336-1.12A1.369,1.369,0,0,0,66.9,7.016c-.9,0-2.016,0-3.248.112h-.672L62.872,5.56A19.249,19.249,0,0,1,67.015,5a3.679,3.679,0,0,1,2.688.784A4.045,4.045,0,0,1,70.487,8.472ZM65.9,11.047a1.442,1.442,0,0,0-1.456,1.568c0,.9.448,1.456,1.232,1.456a7.032,7.032,0,0,0,2.128-.336l.336-.112V10.935Z" transform="translate(-34.539 -1.416)" fill="#000603"/>
    <path id="Path_4210" data-name="Path 4210" d="M72.2,15.9V1.9h2.24V16.01H72.2Z" transform="translate(-33.341 -1.788)" fill="#000603"/>
    <path id="Path_4211" data-name="Path 4211" d="M76.3,15.9V1.9h3.92l3.136,11.535L86.491,1.9h4.031V16.01h-2.24V4.364h-.336L84.587,15.9H82.235L78.876,4.364H78.54V15.9Z" transform="translate(-32.849 -1.788)" fill="#000603"/>
    <path id="Path_4212" data-name="Path 4212" d="M98.987,8.472v4.7a.792.792,0,0,0,.9.9l-.112,1.68a3.679,3.679,0,0,1-2.688-.784,7.372,7.372,0,0,1-3.36.784c-2.016,0-3.024-1.12-3.024-3.248a2.737,2.737,0,0,1,.784-2.24,5.467,5.467,0,0,1,2.688-.784l2.688-.224V8.472a1.486,1.486,0,0,0-.336-1.12,1.369,1.369,0,0,0-1.008-.336c-.9,0-2.016,0-3.248.112H91.6L91.484,5.56A19.249,19.249,0,0,1,95.627,5a3.679,3.679,0,0,1,2.688.784A4.776,4.776,0,0,1,98.987,8.472ZM94.4,11.047a1.442,1.442,0,0,0-1.456,1.568c0,.9.448,1.456,1.232,1.456a7.032,7.032,0,0,0,2.128-.336l.336-.112V10.935Z" transform="translate(-31.123 -1.416)" fill="#000603"/>
    <path id="Path_4213" data-name="Path 4213" d="M100.2,7.316V5.3h7.615V7.316l-4.927,6.271h4.927V15.6H100.2V13.587l4.927-6.271H100.2Z" transform="translate(-29.984 -1.38)" fill="#000603"/>
    <path id="Path_4214" data-name="Path 4214" d="M116.587,8.46v4.7a.792.792,0,0,0,.9.9l-.112,1.68a3.679,3.679,0,0,1-2.688-.784,7.372,7.372,0,0,1-3.36.784c-2.016,0-3.024-1.12-3.024-3.248a2.737,2.737,0,0,1,.784-2.24,4.976,4.976,0,0,1,2.576-.9l2.688-.224V8.46a1.486,1.486,0,0,0-.336-1.12A1.369,1.369,0,0,0,113,7c-.9,0-2.016,0-3.248.112l-.672.112-.112-1.568a19.249,19.249,0,0,1,4.144-.56,3.679,3.679,0,0,1,2.688.784A3.555,3.555,0,0,1,116.587,8.46ZM112,11.035A1.442,1.442,0,0,0,110.54,12.6c0,.9.448,1.456,1.232,1.456a7.032,7.032,0,0,0,2.128-.336l.336-.112V10.923Z" transform="translate(-29.014 -1.404)" fill="#000603"/>
    <path id="Path_4215" data-name="Path 4215" d="M126.647,1.9V16.01h-2.24v-.56a5.607,5.607,0,0,1-2.8.784A3.407,3.407,0,0,1,118.7,15c-.672-.784-.9-2.128-.9-4.032a6.835,6.835,0,0,1,1.008-4.144,3.842,3.842,0,0,1,3.248-1.344c.448,0,1.232.112,2.352.224V1.9Zm-2.576,11.871.336-.112V7.611a16.831,16.831,0,0,0-2.24-.224c-1.344,0-2.128,1.12-2.128,3.472a4.785,4.785,0,0,0,.448,2.576,1.806,1.806,0,0,0,1.568.784A4.1,4.1,0,0,0,124.071,13.771Z" transform="translate(-27.875 -1.788)" fill="#000603"/>
  </g>
  <path id="Path_4216" data-name="Path 4216" d="M13.2,14.09A6.5,6.5,0,1,0,6.7,7.6,6.5,6.5,0,0,0,13.2,14.09Zm0-8.847A2.352,2.352,0,1,1,10.844,7.6,2.3,2.3,0,0,1,13.2,5.244Z" transform="translate(-2.333 -1.1)" fill="#6b1d57"/>
  <path id="Path_4217" data-name="Path 4217" d="M13.651,17.651H5.028a1.855,1.855,0,0,0-1.344.56A2.382,2.382,0,0,0,2.9,19.89v6.5H7.267V22.018h6.5a14.8,14.8,0,0,0,10.527-4.367A14.966,14.966,0,0,0,28.769,6.9H24.4A10.753,10.753,0,0,1,13.651,17.651Z" transform="translate(-2.788 -0.405)" fill="#6b1d57"/>
  <path id="Path_4218" data-name="Path 4218" d="M28.333,28.567A6.543,6.543,0,0,0,22.286,24.2a6.287,6.287,0,0,0-6.047,4.367H2.8v4.367H16.014A6.543,6.543,0,0,0,22.062,37.3a6.287,6.287,0,0,0,6.047-4.367,7.032,7.032,0,0,0,.336-2.128A3.034,3.034,0,0,0,28.333,28.567Zm-6.047-.224A2.365,2.365,0,0,1,24.637,30.7a2.3,2.3,0,0,1-2.352,2.352A2.365,2.365,0,0,1,19.934,30.7,2.3,2.3,0,0,1,22.286,28.344Z" transform="translate(-2.8 1.669)" fill="#6b1d57"/>
</svg>
