<svg xmlns="http://www.w3.org/2000/svg" xmlns:xlink="http://www.w3.org/1999/xlink" width="317.005" height="174.725" viewBox="0 0 317.005 174.725">
  <defs>
    <clipPath id="clip-path">
      <path id="Path_3145" data-name="Path 3145" d="M63.063,2160.714l-273.091,13.928a21.955,21.955,0,0,0-21.954,21.956h0l13.927,87.64a21.952,21.952,0,0,0,21.95,21.954h0l8.442.519h0s5.01,18.9-4.818,28.727c0,0,29.276-7.077,34-26.933l207.62,6.972A21.955,21.955,0,0,0,71.1,2293.523l13.928-110.855a21.956,21.956,0,0,0-21.958-21.954Z" fill="none"/>
    </clipPath>
  </defs>
  <g id="Group_1420" data-name="Group 1420" transform="translate(231.982 -2160.714)">
    <g id="Group_1424" data-name="Group 1424">
      <g id="Group_1423" data-name="Group 1423" clip-path="url(#clip-path)">
        <g id="Group_1419" data-name="Group 1419">
          <g id="Group_1418" data-name="Group 1418">
            <path id="Path_3133" data-name="Path 3133" d="M-222.433,2305.92a24.226,24.226,0,0,1,12.778-9.772l18.711-6.934h17.863l18.707,6.934a24.219,24.219,0,0,1,12.779,9.772Z" fill="#f2ba83"/>
            <path id="Path_3134" data-name="Path 3134" d="M-157.612,2339.042h28.907c0-4.938-.321-11.974-.321-11.974-1.7-29.56-23.243-34.209-23.243-34.209-16.8-4.067-7.643,21.916-7.643,21.916C-160.351,2321.037-159.419,2329.459-157.612,2339.042Z" fill="#58c2e6"/>
            <g id="Group_1416" data-name="Group 1416">
              <rect id="Rectangle_292" data-name="Rectangle 292" width="24.523" height="23.909" transform="translate(-194.272 2271.668)" fill="#f2ba83"/>
            </g>
            <g id="Group_1417" data-name="Group 1417">
              <path id="Path_3135" data-name="Path 3135" d="M-169.746,2282.777v-11.112h-24.526v5.5C-187.278,2282.993-178.846,2283.732-169.746,2282.777Z" fill="#dda673"/>
            </g>
            <path id="Path_3136" data-name="Path 3136" d="M-143.643,2339.041c.47-12.892.326-16.433.211-20.83-.255-9.794-2.349-18.073-8.806-25.343l-.03-.009-17.482-5.7s3.676,6.434-12.391,6.434c0,0-10.584-.412-12.13-6.434l-17.753,5.7s-15.177,3.733-17.78,19.709l8.923,16.4-.317,10.071Z" fill="#58c2e6"/>
            <path id="Path_3137" data-name="Path 3137" d="M-152.819,2236.051c0-5.682-.241-11.354-.107-17.03.086-3.628.42-2.692-3.783-3.09-5.823-.553-7.77,10.265-8.178,14.946-.563,6.452.834,13.4,1.908,19.687.386,2.272.282,6.826,2.659,7.891,2.035.911,4.157-1.335,5.227-3,2.455-3.825,2.022-9.671,2.184-14.012C-152.842,2239.645-152.819,2237.848-152.819,2236.051Z" fill="#070707"/>
            <path id="Path_3138" data-name="Path 3138" d="M-155.339,2268.34c-2.479,9.7-6.843,12.37-6.843,12.37l-5.855,1.142c-3.37-.427-9.179-1.8-9.179-1.8-13.373-4.547-17.248-5.776-19.322-10.858-.087-.216-10.541-36.5-10.541-36.5-1.71-18.678,17.84-22.564,20.792-23.051,2.92-.675,21.535-5.847,27.034,12.083A97.39,97.39,0,0,1-155.339,2268.34Z" fill="#f2ba83"/>
            <path id="Path_3139" data-name="Path 3139" d="M-209.086,2215.549c-6.5,3.131-6.72,8.93-6.415,15.524.236,5.114,1.816,9.474,3.644,14.434,3.119,8.461,3.119,8.461,5.883,13.325a56.632,56.632,0,0,0,9.853,11.283c-1.607-6.364-2.056-11.119-3.521-16.007a30.832,30.832,0,0,1,1.368-19.752s1.481-4.01,7.56-5.154h0l-18.373-13.652" fill="#070707"/>
            <path id="Path_3140" data-name="Path 3140" d="M-198.41,2252.848s-3.306-7.2-8.5-2.936c0,0-2.365,1.845.548,6.666,0,0,4.231,6.929,9.3,3.089Z" fill="#f2ba83"/>
            <path id="Path_3141" data-name="Path 3141" d="M-198.928,2236.049s.022,12.893,2.39,19.732l-2.512.5s-1.322-8.842-5.874-8.947Z" fill="#070707"/>
            <path id="Path_3142" data-name="Path 3142" d="M-149.6,2208.438c20.9,21.284-42.344,21.069-42.344,21.069s-6.634,3.067-17.139-13.959c0,0-2.833-13.316,27.072-17.509C-182.015,2198.04-162.246,2195.616-149.6,2208.438Z" fill="#211b14"/>
            <path id="Path_3143" data-name="Path 3143" d="M-205.005,2339.041h-27.023c.008,0,.1-6.414.109-6.869a127.753,127.753,0,0,1,1.738-18.877c1.624-8.887,5.938-16.766,15.437-19.024,4.346-1.034,8.212,1.6,10.566,5.175C-204.177,2299.446-199.877,2304.746-205.005,2339.041Z" fill="#58c2e6"/>
          </g>
        </g>
      </g>
    </g>
  </g>
</svg>
