<svg xmlns="http://www.w3.org/2000/svg" xmlns:xlink="http://www.w3.org/1999/xlink" width="60.805" height="60.866" viewBox="0 0 60.805 60.866">
  <defs>
    <linearGradient id="linear-gradient" x1="0.5" x2="0.5" y2="1" gradientUnits="objectBoundingBox">
      <stop offset="0" stop-color="#1ba7e5"/>
      <stop offset="1" stop-color="#1ab164"/>
    </linearGradient>
  </defs>
  <g id="Group_592" data-name="Group 592" transform="translate(-2891.988 -2201.638)">
    <path id="Path_1867" data-name="Path 1867" d="M2949.986,2233.5c-1.37,0-2.66.014-3.949,0a1.372,1.372,0,0,1-1.525-1.517,1.388,1.388,0,0,1,1.53-1.261c1.057-.02,2.116,0,3.173,0h.766a27.745,27.745,0,0,0-7.095-17.123c-.307.293-.6.564-.882.844-.66.653-1.3,1.323-1.975,1.964a1.381,1.381,0,1,1-1.929-1.965c.9-.925,1.834-1.826,2.747-2.73-2.4-3.355-11.858-7.33-17.077-7.161,0,.5,0,1.011,0,1.519,0,.756.01,1.512,0,2.267-.013,1.04-.548,1.653-1.418,1.646-.837-.007-1.359-.613-1.367-1.622-.01-1.25,0-2.5,0-3.854a27.907,27.907,0,0,0-17.169,7.116c.739.727,1.458,1.429,2.172,2.136.276.274.561.542.808.841a1.381,1.381,0,0,1-.069,1.879,1.348,1.348,0,0,1-1.876.035c-.868-.809-1.69-1.668-2.534-2.5-.135-.134-.281-.258-.45-.411a26.723,26.723,0,0,0-5.13,8.206c-.387.981-.692,1.995-1.021,3-.3.912-.949,1.34-1.739,1.121a1.373,1.373,0,0,1-.9-1.906c3.494-11.42,11.023-18.754,22.613-21.5,9.673-2.294,18.509-.006,26.183,6.322a29.5,29.5,0,0,1,10.365,17.6,30.435,30.435,0,0,1-21.791,35,1.389,1.389,0,0,1-1.873-.871,1.371,1.371,0,0,1,1.138-1.776,27.776,27.776,0,0,0,10.792-5.81c.114-.1.224-.2.422-.381-.667-.654-1.325-1.295-1.979-1.941-.322-.318-.653-.631-.95-.972a1.38,1.38,0,0,1,.027-1.928,1.361,1.361,0,0,1,1.925,0c.893.846,1.749,1.732,2.623,2.6.09.089.19.167.322.282A27.943,27.943,0,0,0,2949.986,2233.5Z" fill="url(#linear-gradient)"/>
    <path id="Path_1868" data-name="Path 1868" d="M2901.319,2243.069a23.02,23.02,0,0,0,10.1,10.1c.642-1.374,1.26-2.7,1.88-4.019.38-.809.606-.9,1.4-.551a17.09,17.09,0,0,0,5.55,1.408,2.083,2.083,0,0,1,2.119,2.281q.011,4.017-.006,8.032a4.339,4.339,0,0,1-.178,1.209,1.247,1.247,0,0,1-1.417.969q-17.2-1.014-25.487-16.126a27.993,27.993,0,0,1-3.3-12.66,1.4,1.4,0,0,1,1.519-1.6q4.4-.014,8.808,0a2.024,2.024,0,0,1,2.145,1.975,17.98,17.98,0,0,0,1.467,5.8c.286.655.18.935-.463,1.239C2904.1,2241.777,2902.739,2242.407,2901.319,2243.069Z" fill="url(#linear-gradient)"/>
    <g id="Group_155" data-name="Group 155">
      <path id="Path_1265" data-name="Path 1265" d="M2923.165,2218.851c.577.079,1.156.132,1.723.242a12.99,12.99,0,0,1,4.885,1.988c.041.028.088.05.172.1l-.126-1.3,1.555-.162.417,4.069-4.066.417-.162-1.553,1.457-.157a11.681,11.681,0,0,0-13.6.193,11.457,11.457,0,0,0-4.646,7.465,11.68,11.68,0,0,0,1.814,8.628l-1.287.868a12.763,12.763,0,0,1-1.392-2.667,13.005,13.005,0,0,1-.842-3.748,1.542,1.542,0,0,0-.043-.2v-1.669c.086-.591.149-1.186.265-1.772a13.343,13.343,0,0,1,10.769-10.543c.5-.082.995-.132,1.493-.205Z" fill="url(#linear-gradient)"/>
      <path id="Path_1266" data-name="Path 1266" d="M2912.971,2240.616l4.068-.416.159,1.55-1.436.158a11.7,11.7,0,0,0,13.218.073,11.828,11.828,0,0,0,3.2-16.361l1.262-.853a13.332,13.332,0,0,1-3.585,18.51,13.485,13.485,0,0,1-1.768,1.007,13.153,13.153,0,0,1-6.757,1.23,13.394,13.394,0,0,1-6.514-2.3l.133,1.312-1.554.159Z" fill="url(#linear-gradient)"/>
      <path id="Path_1267" data-name="Path 1267" d="M2913.44,2235.037c0-.3-.013-.565,0-.831a.452.452,0,0,1,.155-.251c.587-.557,1.184-1.1,1.766-1.662a2.566,2.566,0,0,0,.48-.578.577.577,0,0,0-.53-.911,1.158,1.158,0,0,0-1.04.516l-1.143-.641a4.151,4.151,0,0,1,.53-.552,2.779,2.779,0,0,1,2.933-.282,1.518,1.518,0,0,1,.76,2.008,1.49,1.49,0,0,1-.1.182,4.871,4.871,0,0,1-.738.9c-.285.3-.6.567-.965.9h2.046v1.193Z" fill="url(#linear-gradient)"/>
      <path id="Path_1268" data-name="Path 1268" d="M2921.019,2232.81v-.891h1.421v.9h.8v1.211h-.8v1.011h-1.47v-1.006h-2.832a1.966,1.966,0,0,1,.291-1.449c.7-.878,1.325-1.809,1.968-2.723a.38.38,0,0,1,.365-.183c.424.011.85,0,1.344,0l-2.177,3.126Z" fill="url(#linear-gradient)"/>
      <path id="Path_1269" data-name="Path 1269" d="M2931.6,2229.707a3.128,3.128,0,0,1-.151,1.306c-.563,1.25-1.095,2.517-1.624,3.779a.376.376,0,0,1-.424.272c-.433-.017-.868,0-1.354,0l1.8-4.152h-1.4v.8h-1.286v-1.988Z" fill="url(#linear-gradient)"/>
      <path id="Path_1270" data-name="Path 1270" d="M2927.158,2228.595c-.171.49-.329.938-.486,1.387q-.975,2.782-1.944,5.576c-.068.193-.151.277-.367.265-.326-.022-.663,0-1.012,0,.033-.116.054-.207.084-.293q1.17-3.339,2.336-6.679c.064-.184.142-.265.346-.253C2926.449,2228.608,2926.786,2228.595,2927.158,2228.595Z" fill="url(#linear-gradient)"/>
    </g>
  </g>
</svg>
