<svg xmlns="http://www.w3.org/2000/svg" width="1440" height="571.344" viewBox="0 0 1440 571.344">
  <g id="Group_523" data-name="Group 523" transform="translate(-41.668 -252.99)">
    <g id="_04" data-name="04" transform="translate(114.966 252.99)">
      <g id="Group_519" data-name="Group 519">
        <path id="Path_1693" data-name="Path 1693" d="M78.334,823.393V804.736h87.959v-138.6h41.314V435.572h18.658V419.579h47.978v14.66h17.325v134.6H326.22V547.52h86.626V518.2H424.84V312.963h17.326V288.974h13.327V258.321h11.994v29.32h11.994v26.655h19.991V536.859h55.974V491.546h61.3v50.645H651.4V434.24H684.72v57.307h11.995v78.632h45.313V364.939l75.965-85.295h14.659V520.867h25.322V492.88h81.294v27.987h23.989V274.313h26.656V252.99h54.641v22.656h26.654V504.873h47.978V527.53h46.646V420.912l11.995-9.329h62.637l11.994,11.995V550.185h33.319v73.3h31.985V823.393Z" transform="translate(-78.334 -252.99)" fill="#c7ceef"/>
      </g>
    </g>
    <g id="_03" data-name="03" transform="translate(60.323 389.727)">
      <g id="Group_520" data-name="Group 520">
        <rect id="Rectangle_111" data-name="Rectangle 111" width="0.5" height="1" transform="translate(542.25 340.651)" fill="#afb9ef"/>
        <path id="Path_1694" data-name="Path 1694" d="M1407.706,700.219V656.24h-21.324V557.617h-29.321v58.641H1326.41V596.267h-29.321v-69.3h-57.306V497.647h-83.961v25.322h-38.648V488.317h-35.984V407.023h-14.659l-49.311,33.317v33.319H986.569v33.319H954.583V409.687H938.591V393.695H926.6v14.659H910.6V557.617H865.291V493.649H814.648V528.3h-65.3V466.993H736.016V453.667H700.033v11.994H689.372v57.308H672.313V476.74c.048-5.188.054-10.649,0-16.3v-3.272h-.036c-.81-60.2-8.59-139.384-44.214-135.437-28.7,3.178-34.63,78.5-34.988,135.438H593V520.3H572.092V451H488.13v67.969H437.488v31.985H421.5v-138.6H406.836V375.037H401.5v37.315H384.178V552.288H337.534V518.971H301.55V502.976H253.573V520.3H202.93v86.626h-29.32V738.868H51v14.661l1400.686,2.665V700.219Z" transform="translate(-51 -321.586)" fill="#8894d6"/>
      </g>
    </g>
    <g id="_02" data-name="02" transform="translate(65.321 627.817)">
      <g id="Group_521" data-name="Group 521">
        <path id="Path_1695" data-name="Path 1695" d="M53.5,629.4v-8h83.961V541.444h42.98V457.482h36.983v83.961h25.988V511.457h12.994V495.465h84.961v15.993h12.994v29.986h49.977V480.472h25.988v60.972h24.988V457.482H466.31V445.488h85.96v11.995h10.995v32.985h28.987v33.984h54.975v19.991h83.961V460.481h33.984V443.489h16.992v16.992h33.984v41.981h27.987V528.45H954.085V448.487h120.944v32.985h82.962v27.987h39.982V450.486h15.993v-10h35.983v10h13.994v58.973h40.981v35.983H1345.9V529.449h23.989v37.983h48.977v49.977h35.983V636.4H53.5Z" transform="translate(-53.5 -440.49)" fill="#9ba9ef"/>
      </g>
    </g>
    <g id="_01" data-name="01" transform="translate(41.668 653.727)">
      <g id="Group_522" data-name="Group 522" transform="translate(0 1)">
        <path id="Path_1696" data-name="Path 1696" d="M1462.347,623.08H41.668V596.424H93.644V575.1h38.649v-63.97h31.985V575.1h35.98V544.448h7.184v-7.377h45.68v7.377h6.109v29.986h13.994V529.455h22.989v46.978h7V561.44H324.2V535.452h30.986v35.983h32.985V498.469h16.992v-10h87.959v12.994h12.994v73.966h17.992V557.442H541.1v17.992h17.992V548.446h39.982V584.43h38.982V460.487h11.995v-7h18.991v8h10.995v98.954h39.982V504.467H760v34.984h90.958v36.983H890.94V486.475h45.979v70.967H968.9v20.99h31.985V560.441h15.993V512.463h18.991V499.469h82.962v12.994h17.992v53.975h15.993v15.992h19.991V544.448h90.958v20.99h78.964v26.988h43.98V577.433H1412.7v14.993h32.985v17.992h35.983V623.08Z" transform="translate(-41.668 -453.49)" fill="#546ade"/>
      </g>
    </g>
  </g>
</svg>
