<svg xmlns="http://www.w3.org/2000/svg" xmlns:xlink="http://www.w3.org/1999/xlink" width="353.005" height="210.725" viewBox="0 0 353.005 210.725">
  <defs>
    <filter id="Path_3132" x="0" y="0" width="353.005" height="210.725" filterUnits="userSpaceOnUse">
      <feOffset dy="3" input="SourceAlpha"/>
      <feGaussianBlur stdDeviation="6" result="blur"/>
      <feFlood flood-opacity="0.122"/>
      <feComposite operator="in" in2="blur"/>
      <feComposite in="SourceGraphic"/>
    </filter>
  </defs>
  <g transform="matrix(1, 0, 0, 1, 0, 0)" filter="url(#Path_3132)">
    <path id="Path_3132-2" data-name="Path 3132" d="M63.063,2160.714l-273.091,13.928a21.955,21.955,0,0,0-21.954,21.956h0l13.927,87.64a21.952,21.952,0,0,0,21.95,21.954h0l8.442.519h0s5.01,18.9-4.818,28.727c0,0,29.276-7.077,34-26.933l207.62,6.972A21.955,21.955,0,0,0,71.1,2293.523l13.928-110.855a21.956,21.956,0,0,0-21.958-21.954Z" transform="translate(249.98 -2145.71)" fill="#f4fbfc"/>
  </g>
</svg>
