<svg xmlns="http://www.w3.org/2000/svg" xmlns:xlink="http://www.w3.org/1999/xlink" width="70.65" height="66.64" viewBox="0 0 70.65 66.64">
  <defs>
    <linearGradient id="linear-gradient" x1="0.5" x2="0.5" y2="1" gradientUnits="objectBoundingBox">
      <stop offset="0" stop-color="#1ba7e5"/>
      <stop offset="1" stop-color="#1ab164"/>
    </linearGradient>
  </defs>
  <g id="Group_583" data-name="Group 583" transform="translate(-2830.44 -2046.127)">
    <g id="Group_581" data-name="Group 581">
      <path id="Path_1838" data-name="Path 1838" d="M2867.5,2076.2h-3.78a16.161,16.161,0,0,0,.37,2.21h3.86A13.757,13.757,0,0,1,2867.5,2076.2Zm15.99,15.88a4.834,4.834,0,0,0-1.28-2.26,4.894,4.894,0,0,0-3.31-1.43l-.06-.17-.69-2.09-3.78-11.33a4.429,4.429,0,0,0-4.21-3.04h-26.24a4.416,4.416,0,0,0-4.2,3.04l-4.54,13.59a4.894,4.894,0,0,0-4.74,4.89v8.41a4.441,4.441,0,0,0,4.44,4.43h7.75v4.44h-6.65v-2.22h-2.21v2.22a2.211,2.211,0,0,0,2.21,2.21h6.65a2.213,2.213,0,0,0,2.22-2.21v-4.44h24.38v4.44a2.226,2.226,0,0,0,2.22,2.21h6.65a2.219,2.219,0,0,0,2.22-2.21v-4.58a4.44,4.44,0,0,0,3.32-4.29v-8.41A4.809,4.809,0,0,0,2883.49,2092.077Zm-41.67-16.58a2.213,2.213,0,0,1,2.1-1.52h26.24a2.082,2.082,0,0,1,.93.21,2.192,2.192,0,0,1,1.18,1.31l.23.7h-30.91Zm-.97,2.91h32.39l2.19,6.58.83,2.49.3.91h-39.04Zm37.25,32.15h-6.65v-4.44h6.65Zm3.33-8.87a2.241,2.241,0,0,1-2.22,2.22h-44.33a2.228,2.228,0,0,1-2.22-2.22v-8.41a2.672,2.672,0,0,1,2.68-2.67h43.41a2.689,2.689,0,0,1,2.45,1.58,2.626,2.626,0,0,1,.23,1.09Zm-13.93-25.49h-3.78a16.161,16.161,0,0,0,.37,2.21h3.86A13.757,13.757,0,0,1,2867.5,2076.2Z" fill="url(#linear-gradient)"/>
      <path id="Path_1839" data-name="Path 1839" d="M2839.31,2092.817a4.435,4.435,0,1,0,4.43,4.44A4.434,4.434,0,0,0,2839.31,2092.817Zm0,6.65a2.215,2.215,0,1,1,2.22-2.21A2.219,2.219,0,0,1,2839.31,2099.467Z" fill="url(#linear-gradient)"/>
      <path id="Path_1840" data-name="Path 1840" d="M2877.36,2093.647a4.436,4.436,0,0,0-2.58-.83,1.925,1.925,0,0,0-.24.01,4.426,4.426,0,1,0,2.82.82Zm-2.58,5.82a2.215,2.215,0,1,1,2.21-2.21A2.213,2.213,0,0,1,2874.78,2099.467Z" fill="url(#linear-gradient)"/>
      <path id="Path_1841" data-name="Path 1841" d="M2845.959,2093.928h22.167v2.217h-22.167Z" fill="url(#linear-gradient)"/>
      <path id="Path_1842" data-name="Path 1842" d="M2845.959,2098.362h22.167v2.216h-22.167Z" fill="url(#linear-gradient)"/>
    </g>
    <g id="Group_582" data-name="Group 582">
      <path id="Path_1843" data-name="Path 1843" d="M2896.77,2062.1l2.02-2.01a2.814,2.814,0,0,0-3.98-3.98l-2.15,2.16a19.646,19.646,0,0,0-7.49-3.17v-2.79h1.88a.937.937,0,0,0,.93-.94v-2.43a2.812,2.812,0,0,0-2.81-2.81h-7.49a2.812,2.812,0,0,0-2.81,2.81v2.43a.939.939,0,0,0,.94.94h1.87v2.79a19.647,19.647,0,0,0-7.49,3.17l-2.15-2.16a2.811,2.811,0,0,0-3.97,3.98l2.01,2.01a19.643,19.643,0,0,0-4.14,9.66,18.153,18.153,0,0,0-.17,2.22h1.87a16.332,16.332,0,0,1,.19-2.22,17.89,17.89,0,0,1,6.83-11.52,17.924,17.924,0,0,1,8.1-3.43,18.16,18.16,0,0,1,2.67-.19,18.361,18.361,0,0,1,2.67.19,17.839,17.839,0,0,1,8.09,3.43,18.172,18.172,0,0,1,2.61,2.43,17.793,17.793,0,0,1-11.31,29.41,17.515,17.515,0,0,1-2.06.12,1.77,1.77,0,0,1-.23-.01,2.626,2.626,0,0,1,.23,1.09v.8a17.947,17.947,0,0,0,2.21-.13,19.675,19.675,0,0,0,13.13-31.85Zm-29.44-1.4-1.94-1.94a.937.937,0,0,1,1.33-1.32l1.98,1.98A16.577,16.577,0,0,0,2867.33,2060.7Zm15.97-5.87a19.6,19.6,0,0,0-3.75,0v-2.52h3.75Zm-6.56-4.4v-1.49a.939.939,0,0,1,.94-.94h7.49a.939.939,0,0,1,.94.94v1.49Zm17.42,8.99,1.98-1.98a.933.933,0,0,1,1.32,1.32l-1.93,1.94C2895.09,2060.247,2894.63,2059.817,2894.16,2059.417Zm-19.62,33.41a17.886,17.886,0,0,0,2.82.82,4.436,4.436,0,0,0-2.58-.83A1.925,1.925,0,0,0,2874.54,2092.827Zm-6.93-4.44a19.688,19.688,0,0,0,2.69,2.22h3.79a17.354,17.354,0,0,1-3.65-2.22Zm-3.89-12.19h-1.88a19.914,19.914,0,0,0,.33,2.21h1.92A16.161,16.161,0,0,1,2863.72,2076.2Z" fill="url(#linear-gradient)"/>
      <path id="Path_1844" data-name="Path 1844" d="M2882.36,2071.757v-6.72a.935.935,0,0,0-1.87,0v6.72a2.815,2.815,0,1,0,1.87,0Zm-.93,3.59a.94.94,0,1,1,.93-.94A.939.939,0,0,1,2881.43,2075.347Z" fill="url(#linear-gradient)"/>
      <path id="Path_1845" data-name="Path 1845" d="M2869.39,2076.2a10.348,10.348,0,0,0,.54,2.21h-1.98a13.757,13.757,0,0,1-.45-2.21Z" fill="url(#linear-gradient)"/>
      <path id="Path_1846" data-name="Path 1846" d="M2877.98,2062.727a12.068,12.068,0,0,0-4.47,2.44l.63.63a.937.937,0,0,1-1.32,1.33l-.64-.64a12.036,12.036,0,0,0-2.89,6.98h.9a.923.923,0,0,1,.9.72,2.082,2.082,0,0,0-.93-.21h-2.77a13.6,13.6,0,0,1,.24-2.22,13.968,13.968,0,0,1,3.82-7.23.121.121,0,0,1,.05-.05.121.121,0,0,1,.05-.05,14.216,14.216,0,0,1,5.9-3.5.938.938,0,1,1,.53,1.8Z" fill="url(#linear-gradient)"/>
      <path id="Path_1847" data-name="Path 1847" d="M2895.47,2074.407a13.937,13.937,0,0,1-4.07,9.88.222.222,0,0,1-.04.05c-.02.02-.04.03-.05.05a14.039,14.039,0,0,1-12.47,3.83,13.608,13.608,0,0,1-2.58-.74l-.83-2.49a10.612,10.612,0,0,0,2.72,1.14,11.487,11.487,0,0,0,2.34.42v-.9a.935.935,0,1,1,1.87,0v.9a12.039,12.039,0,0,0,6.98-2.9l-.63-.63a.936.936,0,0,1,0-1.33.954.954,0,0,1,1.33,0l.63.64a12.128,12.128,0,0,0,2.9-6.98h-.9a.94.94,0,0,1,0-1.88h.9a12.128,12.128,0,0,0-2.9-6.98l-.63.64a.971.971,0,0,1-.67.27.931.931,0,0,1-.66-.27.954.954,0,0,1,0-1.33l.63-.63a12.068,12.068,0,0,0-4.47-2.44.938.938,0,0,1,.53-1.8,14.217,14.217,0,0,1,5.9,3.5.265.265,0,0,1,.06.05c.01.02.03.03.04.05A13.936,13.936,0,0,1,2895.47,2074.407Z" fill="url(#linear-gradient)"/>
      <path id="Path_1848" data-name="Path 1848" d="M2881.426,2062.232a.937.937,0,1,0-.936-.937A.938.938,0,0,0,2881.426,2062.232Z" fill="url(#linear-gradient)"/>
    </g>
  </g>
</svg>
