<svg xmlns="http://www.w3.org/2000/svg" width="22.488" height="22.488" viewBox="0 0 22.488 22.488">
  <g id="Group_715" data-name="Group 715" transform="translate(124.197 -2187.635)">
    <rect id="Rectangle_131-2" data-name="Rectangle 131-2" width="22.488" height="22.488" transform="translate(-124.197 2187.635)" fill="none"/>
    <g id="Group_712-2" data-name="Group 712-2">
      <g id="Group_328-2" data-name="Group 328-2">
        <path id="Path_1613-2" data-name="Path 1613-2" d="M-116.067,2198.076a4.609,4.609,0,0,0-1.267-.185,3.955,3.955,0,0,0-1.588.325c.4-1.462,1.358-3.983,3.269-4.267a.455.455,0,0,0,.37-.327l.417-1.493a.454.454,0,0,0-.314-.559.549.549,0,0,0-.061-.012,3.041,3.041,0,0,0-.427-.03c-2.292,0-4.564,2.394-5.522,5.821-.562,2.011-.727,5.033.659,6.936a4.138,4.138,0,0,0,3.362,1.69h.018a4.026,4.026,0,0,0,4.023-4.028,4.026,4.026,0,0,0-2.937-3.872Z" fill="#f17b3b"/>
        <path id="Path_1614-2" data-name="Path 1614-2" d="M-104.822,2199.975a4.036,4.036,0,0,0-2.42-1.9,4.606,4.606,0,0,0-1.266-.185,3.959,3.959,0,0,0-1.588.325c.4-1.462,1.358-3.983,3.269-4.267a.455.455,0,0,0,.37-.327l.417-1.493a.454.454,0,0,0-.314-.559.611.611,0,0,0-.061-.012,3.078,3.078,0,0,0-.427-.03c-2.292,0-4.564,2.394-5.522,5.821-.562,2.011-.727,5.033.659,6.936a4.138,4.138,0,0,0,3.362,1.69h.018a4.024,4.024,0,0,0,4.019-4.03,4.022,4.022,0,0,0-.519-1.97Z" fill="#f17b3b"/>
      </g>
    </g>
  </g>
</svg>
