<svg xmlns="http://www.w3.org/2000/svg" xmlns:xlink="http://www.w3.org/1999/xlink" width="62.899" height="60.87" viewBox="0 0 62.899 60.87">
  <defs>
    <linearGradient id="linear-gradient" x1="0.5" x2="0.5" y2="1" gradientUnits="objectBoundingBox">
      <stop offset="0" stop-color="#1ba7e5"/>
      <stop offset="1" stop-color="#1ab164"/>
    </linearGradient>
  </defs>
  <g id="Group_587" data-name="Group 587" transform="translate(-2931.43 -2122.632)">
    <path id="Path_1857" data-name="Path 1857" d="M2949.691,2164.908a12.4,12.4,0,0,0-12.173,0,12.18,12.18,0,1,0,12.173,0Zm-.169,18.772-.982-1.7-1.758,1.015.98,1.7a10.162,10.162,0,0,1-3.145.82v-1.941h-2.029v1.94a10.143,10.143,0,0,1-3.145-.82l.98-1.7-1.758-1.014-.982,1.7a10.046,10.046,0,0,1-2.307-2.307l1.7-.982-1.014-1.758-1.7.982a10.1,10.1,0,0,1-.839-3.146h1.963v-2.029h-1.963a10.1,10.1,0,0,1,.839-3.147l1.7.982,1.014-1.758-1.7-.982a10.066,10.066,0,0,1,2.307-2.307l.982,1.7,1.758-1.014-.982-1.7a10.107,10.107,0,0,1,3.147-.839v1.964h2.029v-1.964a10.107,10.107,0,0,1,3.148.839l-.983,1.7,1.758,1.014.982-1.7a10.052,10.052,0,0,1,2.307,2.307l-1.7.982,1.014,1.758,1.7-.982a10.1,10.1,0,0,1,.839,3.147h-1.963v2.029h1.963a10.1,10.1,0,0,1-.839,3.147l-1.7-.982-1.014,1.758,1.7.982A10.059,10.059,0,0,1,2949.522,2183.679Z" transform="translate(0 -4.127)" fill="url(#linear-gradient)"/>
    <path id="Path_1858" data-name="Path 1858" d="M2944.405,2171.18a5.072,5.072,0,1,0,5.073,5.073A5.079,5.079,0,0,0,2944.405,2171.18Zm0,8.116a3.043,3.043,0,1,1,3.043-3.043A3.047,3.047,0,0,1,2944.405,2179.3Z" transform="translate(-0.802 -4.925)" fill="url(#linear-gradient)"/>
    <path id="Path_1859" data-name="Path 1859" d="M2943.849,2175.7h2.029v2.029h-2.029Z" transform="translate(-1.26 -5.383)" fill="url(#linear-gradient)"/>
    <path id="Path_1860" data-name="Path 1860" d="M2994.293,2152.975c-.023-.235-.06-.471-.106-.706l-1.927-9.648a7.206,7.206,0,0,0-4.908-5.434,6.064,6.064,0,0,0,1.905-4.41v-4.058a6.087,6.087,0,0,0-12.175,0h-3.043v2.029h3.043v2.029a6.094,6.094,0,0,0,4.01,5.715l-9.187,9.187-9.279-1.483-3.531-7.95,4.971-8.029a11.654,11.654,0,0,1,9.973-5.556v-2.029a13.667,13.667,0,0,0-11.7,6.516l-8.822,14.244-14.989-14.2a8.591,8.591,0,0,0-6.086-2.5h-1.015v36.873l1.757-1.893a14.072,14.072,0,0,1,10.416-4.546,14.173,14.173,0,0,1,13.731,10.562,14.079,14.079,0,0,1,.473,3.641v3.043h22.1l-.647,3.245a.258.258,0,0,1-.132.18l-2.819,1.411a2.249,2.249,0,0,0-1.252,2.023,2.276,2.276,0,0,0,2.272,2.273H2992.3a2.031,2.031,0,0,0,2.029-2.03v-27.8A6.752,6.752,0,0,0,2994.293,2152.975Zm-12.725,23.425.446-2.235a2.047,2.047,0,0,0,1.155-1.853l-.3-10.135a3.035,3.035,0,0,0-1.725-2.752V2157.1a29.566,29.566,0,0,0,3.37-.3,83.878,83.878,0,0,1,1.7,16.782v2.82Zm4.938-19.965a30.006,30.006,0,0,0,5.7-1.788l.1-.041V2176.4h-4.058v-2.82A85.7,85.7,0,0,0,2986.505,2156.435Zm3.766-13.415,1.885,9.441-.754.323a28.024,28.024,0,0,1-6.277,1.863,27.4,27.4,0,0,1-4.2.413,9.232,9.232,0,0,0-.453-1.522,8.736,8.736,0,0,0-1.255-2.185l7.887-7.886a3.789,3.789,0,0,0,1.015-3.675A5.156,5.156,0,0,1,2990.271,2143.02Zm-11.16,13.921v2.01l-9.13-1.66v-2.2h8.879a7.044,7.044,0,0,1,.217,1.137A6.5,6.5,0,0,1,2979.111,2156.942Zm5.782-17.994a1.789,1.789,0,0,1,.775.461,1.844,1.844,0,0,1,.545,1.312,1.874,1.874,0,0,1-.545,1.312l-7.879,7.879a8.989,8.989,0,0,0-3.47-1.777l8.728-8.728A1.808,1.808,0,0,1,2984.893,2138.947Zm-1.724-14.286a4.042,4.042,0,0,1,4.059,4.058h-8.117A4.063,4.063,0,0,1,2983.169,2124.661Zm-4.058,8.116v-2.029h8.117v2.029a4.059,4.059,0,0,1-8.117,0Zm-21.31,7.558,2.435,5.479-5-.8-.207-.2Zm-20.667-9.672,15.086,14.288h-3.2l-3.729-2.8-9.922-9.922a5.1,5.1,0,0,0-1.905-1.193v-2.244A6.726,6.726,0,0,1,2937.133,2130.663Zm-1.646,12.767a3.516,3.516,0,0,0,.042.507h-2.07V2133.29a3.14,3.14,0,0,1,.469.375l6.212,6.213h-1.1A3.554,3.554,0,0,0,2935.488,2143.429Zm3.551-1.522h3.131l1.731,1.732,1.741,1.312h-6.6a1.531,1.531,0,0,1-1.083-.448,1.073,1.073,0,0,1-.138-.163,1.522,1.522,0,0,1,1.22-2.432Zm-5.58,16.752v-12.694h3.095a3.531,3.531,0,0,0,2.485,1.014h8.6a25.442,25.442,0,0,1-1.728,8.3,16.483,16.483,0,0,0-2.306-.182A16.293,16.293,0,0,0,2933.459,2158.659Zm14.47-2.98a27.484,27.484,0,0,0,1.738-8.7h5.018l18.444,2.95A7.008,7.008,0,0,1,2977.1,2152a7.1,7.1,0,0,1,.859,1.069h-10v5.919l12.02,2.184a1.024,1.024,0,0,1,.866,1.037l.12,4.048H2959.02A16.364,16.364,0,0,0,2947.929,2155.679Zm11.62,12.6h21.47l.122,4.058h-21.3v-1.014A16.259,16.259,0,0,0,2959.548,2168.284Zm17.534,12.945a.233.233,0,0,1,.129-.208l2.821-1.411a2.261,2.261,0,0,0,1.077-1.181h3.849l-1.553.777a2.251,2.251,0,0,0-1.25,2.023v.244h-4.829A.236.236,0,0,1,2977.082,2181.229Zm7.1.244v-.244a.235.235,0,0,1,.129-.208l2.677-1.339a2.238,2.238,0,0,0,1.1-1.253h4.21v3.044h-8.117Z" transform="translate(0)" fill="url(#linear-gradient)"/>
  </g>
</svg>
