<svg xmlns="http://www.w3.org/2000/svg" width="112" height="157.88" viewBox="0 0 112 157.88">
  <g id="Group_1449" data-name="Group 1449" transform="translate(-1215.922 197.42)">
    <line id="Line_332" data-name="Line 332" y2="11.76" transform="translate(1268.632 -63.1)" fill="none" stroke="#f24949" stroke-linecap="round" stroke-width="1"/>
    <path id="Path_3074" data-name="Path 3074" d="M1217.263-155.63s-4.24,12.18,2.359,27.27c6.2,14.14,34.73,47.93,38.271,52.1l.089-.1Z" fill="#f24949"/>
    <path id="Path_3075" data-name="Path 3075" d="M1260.453-77.77l-29.66-103.12s-14.72,7.3-13.71,32.88c1,24.17,36.84,67.08,40.81,71.75A6.113,6.113,0,0,1,1260.453-77.77Z" fill="#f26464"/>
    <path id="Path_3076" data-name="Path 3076" d="M1251.413-193.63s-24.161,4.62-26.87,28.51,18.8,58.45,18.8,58.45l15.74,29.51a22.742,22.742,0,0,1,7.9-2Z" fill="#f24949"/>
    <path id="Path_3077" data-name="Path 3077" d="M1267.063-164.44l-2-31.85s-18.84-1.19-23.071,13.58,2.2,40.83,2.2,40.83,9.41,36.45,19.91,63.2a42.086,42.086,0,0,1,5.311-.59Z" fill="#f26464"/>
    <path id="Path_3078" data-name="Path 3078" d="M1326.583-155.63l-40.66,79.12.13.12c4-4.67,32-38,38.16-52C1330.823-143.45,1326.583-155.63,1326.583-155.63Z" fill="#f24949"/>
    <path id="Path_3079" data-name="Path 3079" d="M1286.063-76.39c-1.48-1.77-7.3-3-14.14-3s-12.551,1.34-14,3.11h0s6.06,8,6.209,12.13h15.641c.15-4.15,6.209-12.13,6.209-12.13Z" fill="#f9b233"/>
    <path id="Path_3080" data-name="Path 3080" d="M1313.053-180.89l-29.64,103a7.011,7.011,0,0,1,2.65,1.46c4.49-5.3,39.75-47.67,40.7-71.62C1327.773-173.59,1313.053-180.89,1313.053-180.89Z" fill="#f26464"/>
    <path id="Path_3081" data-name="Path 3081" d="M1274.523-79.31c.89-6.12,6.9-47.67,7.68-64.12.85-17.79.59-23.72,1-34.31s-2.73-17.46-4.43-18.55-6.87-1.13-6.87-1.13-5.171.05-6.87,1.13-4.85,8-4.431,18.55.171,16.52,1,34.31c.78,16.46,6.791,58.05,7.681,64.13.88,0,1.79-.07,2.709-.07S1273.713-79.35,1274.523-79.31Z" fill="#f24949"/>
    <path id="Path_3082" data-name="Path 3082" d="M1319.3-165.12c-2.71-23.89-26.87-28.51-26.87-28.51l-15.57,114.49a23.848,23.848,0,0,1,8,1.88l15.639-29.45S1322.013-141.23,1319.3-165.12Z" fill="#f24949"/>
    <path id="Path_3083" data-name="Path 3083" d="M1301.853-182.71c-4.23-14.74-23.06-13.55-23.06-13.55l-2,31.85-2.35,85.13a42.957,42.957,0,0,1,5.33.56c10.49-26.75,19.89-63.16,19.89-63.16S1306.093-168,1301.853-182.71Z" fill="#f26464"/>
    <path id="Path_3084" data-name="Path 3084" d="M1261.992-40.29l8.27.75,11.36-.75-5.5-.6Z" fill="#594130"/>
    <path id="Path_3085" data-name="Path 3085" d="M1257.763-76.38a5.671,5.671,0,0,0,.89,2.11c.189.28.589.57.849.33a.606.606,0,0,0,.141-.29,4.282,4.282,0,0,0-.35-3.06,3.537,3.537,0,0,0,.56,1.12,2.134,2.134,0,0,0,1,.78,2.069,2.069,0,0,0,2.24-.89,6,6,0,0,0,.83-2.43,7.15,7.15,0,0,0,.939,2.24,2.44,2.44,0,0,0,2.07,1.1,2.387,2.387,0,0,0,1.87-1.5,6.358,6.358,0,0,0,.42-2.46,7.228,7.228,0,0,0,1.09,2.94,2.181,2.181,0,0,0,2.956.879,2.182,2.182,0,0,0,1.1-1.519,7.577,7.577,0,0,0,.171-2.13,8.986,8.986,0,0,0,.689,2.32c.35.81,1,1.67,1.9,1.58.72-.07,1.22-.77,1.48-1.45a6.571,6.571,0,0,1,.85-2,5.526,5.526,0,0,0,0,2.52,1.929,1.929,0,0,0,1.83,1.49,2.678,2.678,0,0,0,1.38-.68,20.636,20.636,0,0,0,2.24-2,10.572,10.572,0,0,0-1.25,2.78c-.12.4-.1,1,.31,1a.7.7,0,0,0,.47-.17,4.165,4.165,0,0,0,1.71-2.71" fill="none" stroke="#fff" stroke-linecap="round" stroke-linejoin="round" stroke-width="0.98"/>
    <path id="Path_3086" data-name="Path 3086" d="M1263.8-65.82a7.573,7.573,0,0,1,.3,1.69h15.64a7.517,7.517,0,0,1,.3-1.69c-1.31-.79-4.45-1.36-8.12-1.36S1265.112-66.62,1263.8-65.82Z" fill="#f24949"/>
    <path id="Path_3087" data-name="Path 3087" d="M1279.752-64.16c0,1.07-3.51,1.95-7.829,1.95s-7.83-.88-7.83-1.95a.658.658,0,0,1,.2-.44c.8-.87,3.91-1.51,7.63-1.51C1276.242-66.11,1279.752-65.24,1279.752-64.16Z" fill="#f79034"/>
    <path id="Path_3088" data-name="Path 3088" d="M1278.862-64.16c0,.82-3.14,1.49-7,1.49s-7-.67-7-1.49a.506.506,0,0,1,.181-.34c.72-.66,3.5-1.15,6.819-1.15C1275.723-65.65,1278.862-64.99,1278.862-64.16Z" fill="#f26464"/>
    <line id="Line_333" data-name="Line 333" x1="0.87" y1="14.46" transform="translate(1274.432 -66.58)" fill="none" stroke="#f24949" stroke-linecap="round" stroke-width="1"/>
    <line id="Line_334" data-name="Line 334" x1="0.86" y2="14.17" transform="translate(1263.182 -65.51)" fill="none" stroke="#f24949" stroke-linecap="round" stroke-width="1"/>
    <line id="Line_335" data-name="Line 335" x2="0.34" y2="14.9" transform="translate(1279.833 -65.65)" fill="none" stroke="#f24949" stroke-linecap="round" stroke-width="1"/>
    <path id="Path_3089" data-name="Path 3089" d="M1275.272-52.58l5.23,1.64,1.12,10.65-5.5-.6Z" fill="#6b513c"/>
    <path id="Path_3090" data-name="Path 3090" d="M1267.733-57.34s.58.83.64.92c.25.39.44.83.72,1.19l1,1.26a1.536,1.536,0,0,1,.23.38,1.388,1.388,0,0,1,0,.49,11.738,11.738,0,0,0,.08,1.58,11.793,11.793,0,0,0,3.13-.23,2.971,2.971,0,0,0,.719-.18.145.145,0,0,0,.09-.06.17.17,0,0,0,0-.1v-1.4a1.743,1.743,0,0,0,0-.52.671.671,0,0,0-.3-.41,1.588,1.588,0,0,0-.81,0,2.567,2.567,0,0,1-.48,0,9.819,9.819,0,0,0-1.2-.07,1.58,1.58,0,0,1-.72-.1,1.687,1.687,0,0,1-.52-.54c-.2-.31-.42-.6-.64-.89-.44-.6-.9-1.19-1.37-1.77Z" fill="#f9b233"/>
    <path id="Path_3091" data-name="Path 3091" d="M1268.622-58.54h0a.118.118,0,0,0,0-.07h-.14a.3.3,0,0,0-.079.13,1.259,1.259,0,0,1-.1.24h0s-.08-.1-.09-.12-.06-.13-.08-.19a2.337,2.337,0,0,1-.15-.38.56.56,0,0,0-.13-.22.161.161,0,0,0-.227,0l0,0a.25.25,0,0,0,0,.19,2.125,2.125,0,0,0,.14.52,3.387,3.387,0,0,0-.31-.51.182.182,0,0,0-.14-.1.15.15,0,0,0-.14.14.545.545,0,0,0,.06.21l.21.46a.745.745,0,0,0-.18-.17l-.181-.14h0a.113.113,0,0,0-.09.05.292.292,0,0,0,.07.29,1,1,0,0,0,.29.22.486.486,0,0,0-.17,0,1.044,1.044,0,0,1-.17-.06c-.11,0-.06.13,0,.18a.552.552,0,0,0,.18.22,1,1,0,0,0,.76.37.8.8,0,0,0,.6-.4,1.486,1.486,0,0,0,.14-.36.931.931,0,0,1,.06-.4A.13.13,0,0,0,1268.622-58.54Z" fill="#f2dbce"/>
    <path id="Path_3092" data-name="Path 3092" d="M1271.513-54.64l.15.55a1.175,1.175,0,0,0,.88-.08v-.47Z" fill="#f2dbce"/>
    <path id="Path_3093" data-name="Path 3093" d="M1269.573-56.65a1.537,1.537,0,0,0,0,1.26,1.577,1.577,0,0,0,1,.74,4.292,4.292,0,0,0,1.14.13,4.519,4.519,0,0,0,1,0,1.7,1.7,0,0,0,1.16-1.08,2.192,2.192,0,0,0-.17-1.73,1.906,1.906,0,0,0-.89-.94,2.006,2.006,0,0,0-1.29-.1A2.541,2.541,0,0,0,1269.573-56.65Z" fill="#f2dbce"/>
    <path id="Path_3094" data-name="Path 3094" d="M1271.643-56.55a.366.366,0,0,1,0-.38.479.479,0,0,1,.41-.23.462.462,0,0,1,.36.31.49.49,0,0,1-.07.36h0c0-.18-.1-.4-.29-.42a.37.37,0,0,0-.34.36Z" fill="#594130"/>
    <path id="Path_3095" data-name="Path 3095" d="M1270.923-56.55a.372.372,0,0,0-.34-.36c-.19,0-.27.24-.29.42h0a.453.453,0,0,1-.061-.36.433.433,0,0,1,.35-.31.479.479,0,0,1,.41.23.349.349,0,0,1,0,.38Z" fill="#594130"/>
    <path id="Path_3096" data-name="Path 3096" d="M1270.843-56.11a.138.138,0,0,0,0,.16h.35a.162.162,0,0,0,.09-.09.481.481,0,0,0,0-.12.558.558,0,0,0-.11-.27C1271.053-56.6,1270.923-56.23,1270.843-56.11Z" fill="#f26464"/>
    <path id="Path_3097" data-name="Path 3097" d="M1270.992-55.58a3.226,3.226,0,0,0,.311-.13,1.665,1.665,0,0,0,.24-.1,1.242,1.242,0,0,0,.25-.09l.31-.12h0a1,1,0,0,1-1.14.46Z" fill="#594130"/>
    <path id="Path_3098" data-name="Path 3098" d="M1273.362-58.83a1.216,1.216,0,0,0-.709-.28h-.63a.67.67,0,0,1-.521-.3.511.511,0,0,0-.069.25.863.863,0,0,0-.4-.42.541.541,0,0,0-.6,0,.743.743,0,0,0-.181.57.47.47,0,0,0-.589-.08.757.757,0,0,0-.34.52,1.128,1.128,0,0,0,.67,1.22,1.8,1.8,0,0,0,1.1,0,.7.7,0,0,0,.51-.29.588.588,0,0,0,.64.45,1.508,1.508,0,0,0,.77-.33.329.329,0,0,0,.05.35,1.023,1.023,0,0,1,.18.33c0,.13-.09.28-.21.24a.179.179,0,0,0,.189.17.153.153,0,0,0,.051-.01l.11-.07a.316.316,0,0,1,.27.18,1.285,1.285,0,0,1,.1.7.365.365,0,0,0,0,.18.138.138,0,0,0,.12.12c.07,0,.11-.09.07-.13h.15a1.062,1.062,0,0,1,0-.66,4.85,4.85,0,0,0,.23-.63,2.429,2.429,0,0,0,0-.66,1.3,1.3,0,0,0-.07-.39c-.07-.17-.2-.22-.34-.3s-.24,0-.3-.1,0-.25-.08-.34A1.011,1.011,0,0,0,1273.362-58.83Z" fill="#594130"/>
    <path id="Path_3099" data-name="Path 3099" d="M1273.293-56.45a.363.363,0,0,1,.1-.23.411.411,0,0,1,.29-.19.332.332,0,0,1,.25.11.451.451,0,0,1,.13.24.731.731,0,0,1-.07.54.43.43,0,0,1-.09.1.28.28,0,0,1-.22,0,.379.379,0,0,1-.3-.2Z" fill="#f2dbce"/>
    <path id="Path_3100" data-name="Path 3100" d="M1273.693-56.48a.932.932,0,0,1,0,.15.151.151,0,0,1,0,.14.091.091,0,0,1-.128,0l0,0a.134.134,0,0,1,0-.1.24.24,0,0,1,0-.15.1.1,0,0,1,.13-.05Z" fill="#0c0c0c" opacity="0.2" style="mix-blend-mode: normal;isolation: isolate"/>
    <path id="Path_3101" data-name="Path 3101" d="M1272.5-54.5h-1C1271.413-54.5,1271.773-54.07,1272.5-54.5Z" fill="#0c0c0c" opacity="0.2" style="mix-blend-mode: normal;isolation: isolate"/>
    <path id="Path_3102" data-name="Path 3102" d="M1271.923-57.77s.209-.1.38.22c0,0,.06-.41-.33-.42Z" fill="#3f3025"/>
    <path id="Path_3103" data-name="Path 3103" d="M1270.382-57.81s.19-.34.45-.16v-.25S1270.313-58.24,1270.382-57.81Z" fill="#3f3025"/>
    <path id="Path_3104" data-name="Path 3104" d="M1271.843-57.59a.938.938,0,0,1-.65.45,2.506,2.506,0,0,1-.67,0,1.158,1.158,0,0,1-1.1-.57,1,1,0,0,0,1.09.32,2.227,2.227,0,0,0,.569-.13.54.54,0,0,0,.311-.3Z" fill="#594130"/>
    <path id="Path_3105" data-name="Path 3105" d="M1273.233-57.38s-.12.08-.11.18a.686.686,0,0,1,0,.23.292.292,0,0,1-.11.21.18.18,0,0,0,0-.18c0-.06-.07-.07-.14-.13a.558.558,0,0,1-.07-.61Z" fill="#594130"/>
    <path id="Path_3106" data-name="Path 3106" d="M1273.153-58.17a.851.851,0,0,0,.49-.51,1.259,1.259,0,0,1,.459.82Z" fill="#594130"/>
    <path id="Path_3107" data-name="Path 3107" d="M1273.252-58.28a.83.83,0,0,1,.7-.12.57.57,0,0,1,.37.37c-.32-.05-.45.28-.28.37Z" fill="#594130"/>
    <path id="Path_3108" data-name="Path 3108" d="M1272.632-52.59a.239.239,0,0,0-.18-.07.443.443,0,0,0-.11.12.284.284,0,0,0,0,.29h.08a.587.587,0,0,0,.37.06h.07a.149.149,0,0,0,.07-.13.179.179,0,0,0-.1-.16A1.261,1.261,0,0,1,1272.632-52.59Z" fill="#e0c6b8"/>
    <path id="Path_3109" data-name="Path 3109" d="M1275.272-52.58l.85,11.69-14.13.6.93-11.1Z" fill="#87644c"/>
    <path id="Path_3110" data-name="Path 3110" d="M1272.823-52.39a.344.344,0,0,0,0,.18.159.159,0,0,0,.16.09c.1,0,.14-.14.15-.24a.545.545,0,0,0,0,.31.18.18,0,0,0,.23.109l.02-.009c.07,0,.08-.13.09-.21a.448.448,0,0,1,0-.23.382.382,0,0,0,0,.19.127.127,0,0,0,.11.11c.049,0,.26-.41.18-.52a.193.193,0,0,0-.22,0l-.09.11a.113.113,0,0,0,0-.12.172.172,0,0,0-.13,0,.177.177,0,0,0-.12,0s0,.13-.09.15,0-.08,0-.12,0-.09-.07-.1S1272.843-52.5,1272.823-52.39Z" fill="#f2dbce"/>
    <path id="Path_3111" data-name="Path 3111" d="M1274.053-52.32c0,.05.1.1.16.07a.149.149,0,0,0,.07-.15.238.238,0,0,0,0-.14c0-.06-.161-.1-.21,0S1274.013-52.39,1274.053-52.32Z" fill="#f2dbce"/>
    <path id="Path_3112" data-name="Path 3112" d="M1229.733-156.42v-1.89l4.65-5a11.118,11.118,0,0,0,1.43-2,3.192,3.192,0,0,0,.42-1.47,2.267,2.267,0,0,0-.48-1.49,1.744,1.744,0,0,0-1.39-.58,1.821,1.821,0,0,0-1.52.68,2.908,2.908,0,0,0-.51,1.8h-2.81v-.06a4.378,4.378,0,0,1,1.28-3.29,4.8,4.8,0,0,1,3.58-1.35,5,5,0,0,1,3.49,1.16,4,4,0,0,1,1.28,3.08,4.286,4.286,0,0,1-.72,2.4,23.535,23.535,0,0,1-2.37,2.89l-2.58,2.83h3.73l.12-1.42h2.19v3.63Z" fill="#fff"/>
    <path id="Path_3113" data-name="Path 3113" d="M1257.463-165.94h-2.14l-.3-1.92a3.12,3.12,0,0,0-1.07-.67,4.373,4.373,0,0,0-1.52-.25,3.389,3.389,0,0,0-2.89,1.37,5.8,5.8,0,0,0-1,3.55v.5a5.863,5.863,0,0,0,1,3.56,3.306,3.306,0,0,0,2.839,1.38,4.717,4.717,0,0,0,1.541-.29,2.537,2.537,0,0,0,1.09-.67l.3-1.92h2.14v2.89a6.271,6.271,0,0,1-2.21,1.6,7.364,7.364,0,0,1-3,.6,6.135,6.135,0,0,1-4.74-2,7.277,7.277,0,0,1-1.84-5.14v-.48a7.329,7.329,0,0,1,1.83-5.14,6.131,6.131,0,0,1,4.75-2,7.306,7.306,0,0,1,3,.61,6.489,6.489,0,0,1,2.22,1.6Z" fill="#fff"/>
    <path id="Path_3114" data-name="Path 3114" d="M1265.242-170.79a6,6,0,0,1,3.84,1.12,3.75,3.75,0,0,1,1.39,3.09,3.1,3.1,0,0,1-.549,1.87,4.117,4.117,0,0,1-1.71,1.29,3.1,3.1,0,0,1,1.83,1.25,4.007,4.007,0,0,1,.56,2.17v.73a1.191,1.191,0,0,0,.19.73.8.8,0,0,0,.62.31h.35v1.74h-1.49a2.306,2.306,0,0,1-2-.76,3.181,3.181,0,0,1-.57-2v-.82a2.345,2.345,0,0,0-.56-1.65,2.186,2.186,0,0,0-1.58-.62h-2.35v3.79l1.54.29v1.73h-6v-1.62l1.52-.29v-10.27l-1.52-.29v-1.79h6.489Zm-2,6.34h2a2.71,2.71,0,0,0,1.811-.52,1.83,1.83,0,0,0,.6-1.48,2,2,0,0,0-.6-1.54,2.411,2.411,0,0,0-1.76-.58h-2Z" fill="#fff"/>
    <path id="Path_3115" data-name="Path 3115" d="M1285.813-163.5a7.635,7.635,0,0,1-1.8,5.22,6,6,0,0,1-4.73,2.07,5.9,5.9,0,0,1-4.7-2.07,7.626,7.626,0,0,1-1.79-5.22v-.21a7.679,7.679,0,0,1,1.78-5.21,5.892,5.892,0,0,1,4.7-2.08,6,6,0,0,1,4.729,2.08,7.6,7.6,0,0,1,1.811,5.21Zm-2.89-.21a6.511,6.511,0,0,0-.921-3.63,3.111,3.111,0,0,0-2.75-1.39,3,3,0,0,0-2.709,1.39,6.634,6.634,0,0,0-.89,3.63v.23a6.6,6.6,0,0,0,.9,3.66,3,3,0,0,0,2.71,1.39,3.1,3.1,0,0,0,2.75-1.39,6.538,6.538,0,0,0,.91-3.66Z" fill="#fff"/>
    <path id="Path_3116" data-name="Path 3116" d="M1293.423-170.79a5.927,5.927,0,0,1,3.84,1.12,3.755,3.755,0,0,1,1.39,3.09,3.1,3.1,0,0,1-.58,1.89,4.117,4.117,0,0,1-1.71,1.29,3.163,3.163,0,0,1,1.84,1.25,4,4,0,0,1,.55,2.17v.73a1.267,1.267,0,0,0,.19.73.808.808,0,0,0,.62.31h.36v1.74h-1.49a2.348,2.348,0,0,1-2-.76,3.181,3.181,0,0,1-.57-2v-.82a2.3,2.3,0,0,0-.56-1.65,2.15,2.15,0,0,0-1.57-.62h-2.36v3.79l1.54.29v1.73h-6v-1.64l1.53-.29v-10.27l-1.53-.29v-1.79h6.51Zm-2,6.34h2a2.676,2.676,0,0,0,1.81-.52,1.83,1.83,0,0,0,.6-1.48,2.064,2.064,0,0,0-.59-1.54,2.447,2.447,0,0,0-1.77-.58h-2Z" fill="#fff"/>
    <path id="Path_3117" data-name="Path 3117" d="M1310.143-162.71h-4.86v4.11h4.64l.12-1.72h2.189v3.93h-11.309v-1.76l1.52-.29v-10.27l-1.52-.29v-1.79h11.34v3.94h-2.21l-.12-1.72h-4.6v3.61h4.86Z" fill="#fff"/>
    <path id="Path_3118" data-name="Path 3118" d="M1231.013-149.17v-2.06h7.069v2.06l-1.83.35v4.93h7v-4.93l-1.829-.35v-2.06h7.069v2.06l-1.829.35v12.25l1.829.35v2.05h-7.069v-2.05l1.829-.35v-4.69h-7v4.69l1.83.35v2.05h-7.069v-2.05l1.819-.35v-12.25Z" fill="#fff"/>
    <path id="Path_3119" data-name="Path 3119" d="M1249.122-136.22l1.22-.17,5.19-14.84h3.5l5.16,14.84,1.22.17v2.05h-5.82v-2.05l1.19-.21-.75-2.34h-5.53l-.75,2.34,1.18.21v2.05h-5.81Zm6.19-5.07h3.91l-1.92-6h-.07Z" fill="#fff"/>
    <path id="Path_3120" data-name="Path 3120" d="M1274.173-151.23a6.692,6.692,0,0,1,4.63,1.51,5.441,5.441,0,0,1,.189,7.691q-.093.1-.189.189a6.777,6.777,0,0,1-4.63,1.49h-2.88v3.78l1.829.35v2.05h-7.069v-2.05l1.819-.35v-12.25l-1.819-.35v-2.06Zm-2.88,8.24h2.88a2.61,2.61,0,0,0,2.889-2.3,2.673,2.673,0,0,0,.011-.473,2.944,2.944,0,0,0-.73-2,2.775,2.775,0,0,0-2.17-.8h-2.88Z" fill="#fff"/>
    <path id="Path_3121" data-name="Path 3121" d="M1289.223-151.23a6.687,6.687,0,0,1,4.62,1.51,5.421,5.421,0,0,1,.218,7.662c-.071.075-.144.148-.218.218a6.766,6.766,0,0,1-4.62,1.49h-2.88v3.78l1.83.35v2.05h-7.07v-2.05l1.82-.35v-12.25l-1.82-.35v-2.06Zm-2.88,8.24h2.88a2.83,2.83,0,0,0,2.16-.78,2.782,2.782,0,0,0,.74-2,2.907,2.907,0,0,0-.74-2,2.763,2.763,0,0,0-2.16-.8h-2.88Z" fill="#fff"/>
    <path id="Path_3122" data-name="Path 3122" d="M1302.372-149.17l-1.39.2,2.64,5.6h.07l2.65-5.6-1.38-.2v-2.06h6.46v2.06l-1.46.24-4.64,8.76v3.6l1.83.35v2.05h-7.06v-2.05l1.82-.35v-3.77l-4.56-8.59-1.44-.24v-2.06h6.46Z" fill="#fff"/>
    <path id="Path_3123" data-name="Path 3123" d="M1236.793-124.53h-1.411l-.189-1.25a2.034,2.034,0,0,0-.7-.44,2.749,2.749,0,0,0-1-.16,2.222,2.222,0,0,0-1.89.89,3.825,3.825,0,0,0-.66,2.33v.33a3.842,3.842,0,0,0,.66,2.33,2.167,2.167,0,0,0,1.86.9,2.994,2.994,0,0,0,1-.17,1.574,1.574,0,0,0,.71-.44l.189-1.25h1.411v1.86a4.106,4.106,0,0,1-1.45,1,4.858,4.858,0,0,1-2,.39,3.994,3.994,0,0,1-3.1-1.31,4.775,4.775,0,0,1-1.21-3.36v-.32a4.819,4.819,0,0,1,1.21-3.37,4,4,0,0,1,3.1-1.31,4.791,4.791,0,0,1,2,.39,4.44,4.44,0,0,1,1.46,1Z" fill="#fff"/>
    <path id="Path_3124" data-name="Path 3124" d="M1241.7-127.71v1.14l-1,.19v4.91a1.8,1.8,0,0,0,.5,1.39,2,2,0,0,0,1.38.47,2,2,0,0,0,1.39-.46,1.821,1.821,0,0,0,.5-1.4v-4.91l-1-.19v-1.14h3.89v1.14l-1,.19v4.91a3,3,0,0,1-1,2.44,4.759,4.759,0,0,1-5.46,0,3,3,0,0,1-1-2.44v-4.91l-1-.19v-1.14h3.8Z" fill="#fff"/>
    <path id="Path_3125" data-name="Path 3125" d="M1255.323-124.71h-1.4l-.24-1.3a2.9,2.9,0,0,0-.72-.27,4.615,4.615,0,0,0-1-.11,2,2,0,0,0-1.2.32,1,1,0,0,0-.42.85.907.907,0,0,0,.44.78,5.792,5.792,0,0,0,1.53.65,6.012,6.012,0,0,1,2.36,1.14,2.4,2.4,0,0,1,.8,1.87,2.243,2.243,0,0,1-1,1.9,4.153,4.153,0,0,1-2.52.7,5.567,5.567,0,0,1-2-.35,4.27,4.27,0,0,1-1.5-1v-2h1.47l.2,1.34a2.3,2.3,0,0,0,.771.38,3.65,3.65,0,0,0,1.089.15,1.906,1.906,0,0,0,1.181-.31,1,1,0,0,0,.4-.85,1.113,1.113,0,0,0-.38-.87,3.9,3.9,0,0,0-1.35-.62,7.575,7.575,0,0,1-2.53-1.15,2.147,2.147,0,0,1-.86-1.82,2.227,2.227,0,0,1,1-1.87,4.083,4.083,0,0,1,2.43-.75,5.679,5.679,0,0,1,2,.33,4.827,4.827,0,0,1,1.5.88Z" fill="#fff"/>
    <path id="Path_3126" data-name="Path 3126" d="M1264.742-127.71v2.51h-1.449l-.07-1h-1.73v6.62l1,.2v1.13h-3.9v-1.13l1-.2v-6.62h-1.67l-.08,1h-1.44v-2.51Z" fill="#fff"/>
    <path id="Path_3127" data-name="Path 3127" d="M1274.043-122.92a5,5,0,0,1-1.19,3.41,4.2,4.2,0,0,1-5.935.235c-.082-.075-.16-.153-.235-.235a4.994,4.994,0,0,1-1.17-3.41v-.15a5,5,0,0,1,1.17-3.41,3.86,3.86,0,0,1,3.069-1.35,3.922,3.922,0,0,1,3.1,1.35,5,5,0,0,1,1.19,3.41Zm-1.88-.16a4.256,4.256,0,0,0-.61-2.37,2,2,0,0,0-1.8-.91,2,2,0,0,0-1.77.9,4.356,4.356,0,0,0-.589,2.38v.16a4.282,4.282,0,0,0,.6,2.39,2,2,0,0,0,1.771.91,2,2,0,0,0,1.79-.91,4.194,4.194,0,0,0,.61-2.39Z" fill="#fff"/>
    <path id="Path_3128" data-name="Path 3128" d="M1284.132-125.25h0l-2.52,7h-1.26l-2.51-6.94h0l.181,4.12v1.48l1,.2v1.13h-3.9v-1.13l1-.2v-6.75l-1-.19v-1.18h3.47l2.39,6.93h0l2.421-6.93h3.469v1.14l-1,.19v6.75l1,.2v1.13h-3.949v-1.13l1-.2v-1.48Z" fill="#fff"/>
    <path id="Path_3129" data-name="Path 3129" d="M1293.853-122.43h-3.18v2.72h3l.09-1.12h1.43v2.57h-7.44v-1.13l1-.2v-6.75l-1-.19v-1.18h7.43v2.58h-1.45l-.08-1.12h-3v2.36h3.18Z" fill="#fff"/>
    <path id="Path_3130" data-name="Path 3130" d="M1300.723-127.71a3.894,3.894,0,0,1,2.51.74,2.434,2.434,0,0,1,.91,2,2.006,2.006,0,0,1-.38,1.23,2.668,2.668,0,0,1-1.12.85,2.006,2.006,0,0,1,1.2.82,2.606,2.606,0,0,1,.37,1.42v.47a.8.8,0,0,0,.12.48.508.508,0,0,0,.4.21h.24v1.14h-1a1.536,1.536,0,0,1-1.3-.5,2.074,2.074,0,0,1-.37-1.29v-.53a1.5,1.5,0,0,0-.38-1.04,1.414,1.414,0,0,0-1-.41h-1.541v2.48l1,.2v1.13h-3.9v-1.13l1-.2v-6.75l-1-.19v-1.13h4.241Zm-1.34,4.15h1.3a1.78,1.78,0,0,0,1.19-.34,1.191,1.191,0,0,0,.39-1,1.366,1.366,0,0,0-.39-1,1.614,1.614,0,0,0-1.15-.37h-1.34Z" fill="#fff"/>
    <path id="Path_3131" data-name="Path 3131" d="M1313-124.71h-1.42l-.24-1.3a2.882,2.882,0,0,0-.72-.27,4.728,4.728,0,0,0-1-.11,2,2,0,0,0-1.2.32,1,1,0,0,0-.421.85.912.912,0,0,0,.44.78,5.816,5.816,0,0,0,1.53.65,6.109,6.109,0,0,1,2.36,1.14,2.4,2.4,0,0,1,.8,1.87,2.238,2.238,0,0,1-1,1.9,4.149,4.149,0,0,1-2.52.7,5.574,5.574,0,0,1-2-.35,4.288,4.288,0,0,1-1.5-1v-2h1.46l.2,1.34a2.3,2.3,0,0,0,.77.38,3.66,3.66,0,0,0,1.09.15,1.9,1.9,0,0,0,1.18-.31,1,1,0,0,0,.4-.85,1.081,1.081,0,0,0-.39-.87,3.73,3.73,0,0,0-1.34-.62,7.583,7.583,0,0,1-2.53-1.15,2.151,2.151,0,0,1-.86-1.82,2.232,2.232,0,0,1,1-1.87,4.088,4.088,0,0,1,2.431-.75,5.724,5.724,0,0,1,2,.33,4.825,4.825,0,0,1,1.5.88Z" fill="#fff"/>
  </g>
</svg>
