<svg xmlns="http://www.w3.org/2000/svg" xmlns:xlink="http://www.w3.org/1999/xlink" width="74.922" height="69.308" viewBox="0 0 74.922 69.308">
  <defs>
    <linearGradient id="linear-gradient" x1="0.5" x2="0.5" y2="1" gradientUnits="objectBoundingBox">
      <stop offset="0" stop-color="#1ba7e5"/>
      <stop offset="1" stop-color="#1ab164"/>
    </linearGradient>
  </defs>
  <g id="Group_1446" data-name="Group 1446" transform="translate(-520 -893.558)">
    <path id="Path_3169" data-name="Path 3169" d="M123.2,22h-.058A29.009,29.009,0,0,0,94.717,45.5a8.718,8.718,0,0,1,5.976-2.336,8.57,8.57,0,0,1,6.04,2.473l.029.029a9.34,9.34,0,0,1,1.4,1.914,9.342,9.342,0,0,1,1.4-1.914c.015-.016.03-.031.045-.045a8.729,8.729,0,0,1,6.066-2.457,8.565,8.565,0,0,1,6.082,2.473l.029.029c.118.125.229.254.34.384v4.745a1.059,1.059,0,0,0,2.118,0V46.049c.11-.13.222-.258.34-.384l.045-.045a8.729,8.729,0,0,1,6.066-2.457h.042a8.571,8.571,0,0,1,6.04,2.473l.029.03a9.343,9.343,0,0,1,1.4,1.914,9.341,9.341,0,0,1,1.4-1.914l.045-.045a8.73,8.73,0,0,1,6.066-2.457,8.563,8.563,0,0,1,5.933,2.33A29.012,29.012,0,0,0,123.2,22Z" transform="translate(443.279 871.558)" fill="url(#linear-gradient)"/>
    <g id="Group_586" data-name="Group 586" transform="translate(-2304.43 -1222.435)">
      <g id="Group_585" data-name="Group 585">
        <path id="Path_1852" data-name="Path 1852" d="M2874.047,2163.306a4.7,4.7,0,0,0-3.173-1.371l-1.332-4-.767-2.31-2.242-6.728a4.249,4.249,0,0,0-4.035-2.9h-25.139a4.248,4.248,0,0,0-4.035,2.9l-4.342,13.034a4.693,4.693,0,0,0-4.552,4.687v8.06a4.261,4.261,0,0,0,4.255,4.246h7.437v4.246h-6.373v-2.118h-2.128v2.118a2.123,2.123,0,0,0,2.128,2.127h6.373a2.121,2.121,0,0,0,2.119-2.127v-4.246h23.375v4.246a2.121,2.121,0,0,0,2.118,2.127h6.374a2.123,2.123,0,0,0,2.127-2.127v-4.38a4.265,4.265,0,0,0,3.192-4.112v-8.06A4.691,4.691,0,0,0,2874.047,2163.306Zm-38.71-13.734a2.126,2.126,0,0,1,2.022-1.447H2862.5a2.126,2.126,0,0,1,2.022,1.447l.221.68h-29.625Zm-.93,2.8h31.043l.709,2.128.882,2.655,1.6,4.782h-37.426Zm35.7,30.8h-6.374v-4.246h6.374Zm3.191-8.492a2.121,2.121,0,0,1-2.128,2.118h-42.486a2.12,2.12,0,0,1-2.127-2.118v-8.06a2.569,2.569,0,0,1,2.568-2.569h41.6a2.569,2.569,0,0,1,2.568,2.569Z" fill="url(#linear-gradient)"/>
        <path id="Path_1853" data-name="Path 1853" d="M2832.931,2166.181a4.25,4.25,0,1,0,4.246,4.246A4.248,4.248,0,0,0,2832.931,2166.181Zm0,6.373a2.122,2.122,0,1,1,2.128-2.127A2.129,2.129,0,0,1,2832.931,2172.554Z" fill="url(#linear-gradient)"/>
        <path id="Path_1854" data-name="Path 1854" d="M2866.926,2166.181a4.25,4.25,0,1,0,4.245,4.246A4.248,4.248,0,0,0,2866.926,2166.181Zm0,6.373a2.122,2.122,0,1,1,2.127-2.127A2.122,2.122,0,0,1,2866.926,2172.554Z" fill="url(#linear-gradient)"/>
        <path id="Path_1855" data-name="Path 1855" d="M2839.306,2167.244h21.245v2.124h-21.245Z" fill="url(#linear-gradient)"/>
        <path id="Path_1856" data-name="Path 1856" d="M2839.306,2171.493h21.245v2.124h-21.245Z" fill="url(#linear-gradient)"/>
      </g>
    </g>
  </g>
</svg>
