<svg xmlns="http://www.w3.org/2000/svg" xmlns:xlink="http://www.w3.org/1999/xlink" width="59.577" height="60.867" viewBox="0 0 59.577 60.867">
  <defs>
    <linearGradient id="linear-gradient" x1="0.5" x2="0.5" y2="1" gradientUnits="objectBoundingBox">
      <stop offset="0" stop-color="#1ba7e5"/>
      <stop offset="1" stop-color="#1ab164"/>
    </linearGradient>
  </defs>
  <g id="Group_1453" data-name="Group 1453" transform="translate(-874 -902)">
    <g id="Group_591" data-name="Group 591" transform="translate(-2162.733 -1224.069)">
      <g id="Group_589" data-name="Group 589">
        <g id="Group_588" data-name="Group 588">
          <path id="Path_1861" data-name="Path 1861" d="M3094.657,2160.456h-56.268a1.655,1.655,0,0,0-1.655,1.656v3.309a4.971,4.971,0,0,0,4.964,4.965h19.588l-.251.085a1.657,1.657,0,0,0,0,3.142l5.221,1.738-5.221,1.739a1.657,1.657,0,0,0,0,3.142l5.221,1.739-4.968,1.655H3041.7a1.655,1.655,0,0,0,0,3.31h49.649a1.655,1.655,0,1,0,0-3.31h-19.588l.253-.085a1.657,1.657,0,0,0,0-3.142l-5.221-1.737,5.221-1.74a1.656,1.656,0,0,0,0-3.141l-5.221-1.74,4.968-1.655h19.588a4.97,4.97,0,0,0,4.964-4.965v-3.309A1.654,1.654,0,0,0,3094.657,2160.456Zm-1.655,4.965a1.658,1.658,0,0,1-1.655,1.656H3041.7a1.657,1.657,0,0,1-1.653-1.656v-1.654H3093Z" fill="url(#linear-gradient)"/>
        </g>
      </g>
      <g id="Group_590" data-name="Group 590">
        <path id="Path_1862" data-name="Path 1862" d="M3086.583,2140.463a3.872,3.872,0,0,0-2.637-1.139l-3.613-10.839a3.531,3.531,0,0,0-3.353-2.416h-20.915a3.531,3.531,0,0,0-3.353,2.416l-3.613,10.839a3.9,3.9,0,0,0-3.78,3.9v6.7a3.54,3.54,0,0,0,3.534,3.534h6.185v3.533h-5.3v-1.767h-1.767v1.767a1.768,1.768,0,0,0,1.767,1.767h5.3a1.768,1.768,0,0,0,1.766-1.767v-3.533h19.437v3.533a1.768,1.768,0,0,0,1.766,1.767h5.3a1.768,1.768,0,0,0,1.767-1.767v-3.645a3.541,3.541,0,0,0,2.65-3.422v-6.7a3.875,3.875,0,0,0-1.142-2.758Zm-30.518-12.627h20.915a1.768,1.768,0,0,1,1.677,1.208l.186.559H3054.2l.186-.559A1.768,1.768,0,0,1,3056.065,2127.836Zm-2.452,3.534h25.819l2.65,7.951h-31.119Zm29.7,25.62h-5.3v-3.533h5.3v3.533Zm2.651-7.067a1.771,1.771,0,0,1-1.767,1.767h-35.339a1.771,1.771,0,0,1-1.767-1.767v-6.7a2.133,2.133,0,0,1,2.133-2.133h34.607a2.133,2.133,0,0,1,2.133,2.133Z" fill="url(#linear-gradient)"/>
        <path id="Path_1863" data-name="Path 1863" d="M3052.387,2142.855a3.534,3.534,0,1,0,3.534,3.534A3.534,3.534,0,0,0,3052.387,2142.855Zm0,5.3a1.767,1.767,0,1,1,1.767-1.767A1.767,1.767,0,0,1,3052.387,2148.156Z" fill="url(#linear-gradient)"/>
        <path id="Path_1864" data-name="Path 1864" d="M3080.658,2142.855a3.534,3.534,0,1,0,3.534,3.534A3.534,3.534,0,0,0,3080.658,2142.855Zm0,5.3a1.767,1.767,0,1,1,1.767-1.767A1.767,1.767,0,0,1,3080.658,2148.156Z" fill="url(#linear-gradient)"/>
        <path id="Path_1865" data-name="Path 1865" d="M3057.688,2143.738h17.669v1.767h-17.669Z" fill="url(#linear-gradient)"/>
        <path id="Path_1866" data-name="Path 1866" d="M3057.688,2147.272h17.669v1.767h-17.669Z" fill="url(#linear-gradient)"/>
      </g>
    </g>
  </g>
</svg>
