<svg id="overturned-vehicle" xmlns="http://www.w3.org/2000/svg" width="17.545" height="11.581" viewBox="0 0 17.545 11.581">
  <path id="Path_18916" data-name="Path 18916" d="M.483,114.153l2.755,1.127-2.953-.4c-.226-.029-.307-.143-.281-.281l.112-.4c0-.083.054-.109.109-.143A.37.37,0,0,1,.483,114.153Zm.31-2.362a.261.261,0,0,0-.169.083l-.338.335c-.143.143-.083.307.143.479l2.921,2.25L1.1,112.017A.382.382,0,0,0,.792,111.791Zm16.752-7.339v4.386a2.426,2.426,0,0,1-.281,1.207l-2.19,4.584a1.89,1.89,0,0,1-1.548.983H7.285a1.854,1.854,0,0,1-1.548-.983l-2.19-4.584a2.426,2.426,0,0,1-.281-1.207v-4.386a.432.432,0,0,1,.421-.421H5.264a.432.432,0,0,1,.421.421v1.012h9.388v-1.009a.432.432,0,0,1,.421-.421h1.631A.431.431,0,0,1,17.545,104.452ZM5.568,108.982a1.082,1.082,0,0,0,1.1-1.1,1.1,1.1,0,1,0-1.1,1.1Zm9.953,1.207H5.233s1.488,3.179,1.488,3.145a1.112,1.112,0,0,0,1.207.785h4.89a1.115,1.115,0,0,0,1.207-.785Zm.757-2.3a1.1,1.1,0,0,0-1.1-1.1,1.115,1.115,0,0,0-1.1,1.1,1.1,1.1,0,0,0,1.1,1.1A1.115,1.115,0,0,0,16.278,107.884ZM2.312,111.226a.1.1,0,0,0-.083.029l-.335.224c-.143.083-.109.226.029.367l1.8,2.359L2.57,111.45C2.5,111.315,2.42,111.226,2.312,111.226Z" transform="translate(0.001 -104.031)" fill="#8fb946"/>
</svg>
