<svg id="money_4_" data-name="money (4)" xmlns="http://www.w3.org/2000/svg" width="14.848" height="19.797" viewBox="0 0 14.848 19.797">
  <path id="Path_18913" data-name="Path 18913" d="M60.317,2.9a2.859,2.859,0,0,1,.472-.04h6.853a2.857,2.857,0,0,1,.472.04L69.279.854a.571.571,0,0,0-.666-.828L65.818.9l-1.3-.813a.571.571,0,0,0-.605,0L62.612.9l-2.8-.874a.571.571,0,0,0-.666.828Zm0,0" transform="translate(-56.791 0)" fill="#8fb946"/>
  <path id="Path_18914" data-name="Path 18914" d="M14.8,115.141l-3.819-8.333a1.713,1.713,0,0,0-.126-3.421H4a1.713,1.713,0,0,0-.126,3.421L.052,115.141a.572.572,0,0,0-.052.238,3.811,3.811,0,0,0,3.807,3.807h7.234a3.811,3.811,0,0,0,3.807-3.807.569.569,0,0,0-.052-.238Zm-5.849-3.379a.571.571,0,0,1,.571.571v.761A2.1,2.1,0,0,1,8,115.109v1.032a.571.571,0,1,1-1.142,0v-.952H5.9a.571.571,0,0,1,0-1.142H7.424a.953.953,0,0,0,.952-.952v-.19H5.9a.571.571,0,0,1-.571-.571v-.761a2.1,2.1,0,0,1,1.523-2.014v-1.032a.571.571,0,1,1,1.142,0v.952h.952a.571.571,0,1,1,0,1.142H7.424a.953.953,0,0,0-.952.952v.19Zm0,0" transform="translate(0 -99.389)" fill="#8fb946"/>
</svg>
