<svg id="calendar_14_" data-name="calendar (14)" xmlns="http://www.w3.org/2000/svg" width="11.825" height="12.117" viewBox="0 0 11.825 12.117">
  <g id="Group_2871" data-name="Group 2871" transform="translate(0 1.168)">
    <g id="Group_2870" data-name="Group 2870">
      <path id="Path_18970" data-name="Path 18970" d="M17.264,49.349H6.9a.731.731,0,0,0-.73.73v9.489a.731.731,0,0,0,.73.73H17.264a.731.731,0,0,0,.73-.73V50.079A.731.731,0,0,0,17.264,49.349Zm-.146,10.073H7.045v-9.2H17.118v9.2Z" transform="translate(-6.169 -49.349)" fill="#8fb946"/>
    </g>
  </g>
  <g id="Group_2873" data-name="Group 2873" transform="translate(0.438 4.088)">
    <g id="Group_2872" data-name="Group 2872">
      <rect id="Rectangle_2313" data-name="Rectangle 2313" width="10.949" height="0.876" fill="#8fb946"/>
    </g>
  </g>
  <g id="Group_2875" data-name="Group 2875" transform="translate(2.628)">
    <g id="Group_2874" data-name="Group 2874">
      <path id="Path_18971" data-name="Path 18971" d="M117.643,0a.438.438,0,0,0-.438.438V2.774a.438.438,0,1,0,.876,0V.438A.438.438,0,0,0,117.643,0Z" transform="translate(-117.205)" fill="#8fb946"/>
    </g>
  </g>
  <g id="Group_2877" data-name="Group 2877" transform="translate(8.467)">
    <g id="Group_2876" data-name="Group 2876">
      <path id="Path_18972" data-name="Path 18972" d="M364.39,0a.438.438,0,0,0-.438.438V2.774a.438.438,0,1,0,.876,0V.438A.438.438,0,0,0,364.39,0Z" transform="translate(-363.952)" fill="#8fb946"/>
    </g>
  </g>
  <g id="Group_2879" data-name="Group 2879" transform="translate(3.942 8.759)">
    <g id="Group_2878" data-name="Group 2878">
      <path id="Path_18973" data-name="Path 18973" d="M176.373,370.12h-3.212a.438.438,0,1,0,0,.876h3.212a.438.438,0,0,0,0-.876Z" transform="translate(-172.723 -370.12)" fill="#8fb946"/>
    </g>
  </g>
  <g id="Group_2881" data-name="Group 2881" transform="translate(3.942 6.715)">
    <g id="Group_2880" data-name="Group 2880">
      <path id="Path_18974" data-name="Path 18974" d="M176.373,283.759h-3.212a.438.438,0,0,0,0,.876h3.212a.438.438,0,0,0,0-.876Z" transform="translate(-172.723 -283.759)" fill="#8fb946"/>
    </g>
  </g>
</svg>
