<svg xmlns="http://www.w3.org/2000/svg" width="27.124" height="25.952" viewBox="0 0 27.124 25.952">
  <g id="star" transform="translate(1.016 1)">
    <path id="Path_18530" data-name="Path 18530" d="M74.047,24.335l-8.127-.754-3.228-7.5a.651.651,0,0,0-1.2,0l-3.228,7.5-8.127.754a.651.651,0,0,0-.37,1.138L55.9,30.86l-1.795,7.962a.651.651,0,0,0,.968.7l7.018-4.167,7.018,4.167a.651.651,0,0,0,.968-.7L68.285,30.86l6.132-5.387A.651.651,0,0,0,74.047,24.335Z" transform="translate(-49.548 -15.691)" fill="none" stroke="#ffc850" stroke-width="2"/>
  </g>
</svg>
