<svg id="star" xmlns="http://www.w3.org/2000/svg" width="25.091" height="23.927" viewBox="0 0 25.091 23.927">
  <path id="Path_18530" data-name="Path 18530" d="M74.047,24.335l-8.127-.754-3.228-7.5a.651.651,0,0,0-1.2,0l-3.228,7.5-8.127.754a.651.651,0,0,0-.37,1.138L55.9,30.86l-1.795,7.962a.651.651,0,0,0,.968.7l7.018-4.167,7.018,4.167a.651.651,0,0,0,.968-.7L68.285,30.86l6.132-5.387A.651.651,0,0,0,74.047,24.335Z" transform="translate(-49.548 -15.691)" fill="#ffdc64"/>
  <path id="Path_18536" data-name="Path 18536" d="M63.866,18.811l-1.174-2.726a.651.651,0,0,0-1.2,0l-3.228,7.5-8.127.754a.651.651,0,0,0-.37,1.138L55.9,30.86l-1.795,7.962a.651.651,0,0,0,.968.7l.934-.555A50.559,50.559,0,0,1,63.866,18.811Z" transform="translate(-49.548 -15.691)" fill="#ffc850"/>
</svg>
