<svg xmlns="http://www.w3.org/2000/svg" width="26.291" height="21.361" viewBox="0 0 26.291 21.361">
  <path id="twitter_5_" data-name="twitter (5)" d="M26.291,50.529a11.238,11.238,0,0,1-3.106.851A5.36,5.36,0,0,0,25.556,48.4a10.771,10.771,0,0,1-3.418,1.3,5.39,5.39,0,0,0-9.323,3.686,5.55,5.55,0,0,0,.125,1.229A15.256,15.256,0,0,1,1.83,48.983a5.391,5.391,0,0,0,1.656,7.2,5.323,5.323,0,0,1-2.435-.664v.059a5.415,5.415,0,0,0,4.318,5.3,5.38,5.38,0,0,1-1.413.177,4.765,4.765,0,0,1-1.02-.092,5.441,5.441,0,0,0,5.036,3.755,10.83,10.83,0,0,1-6.683,2.3A10.1,10.1,0,0,1,0,66.943a15.174,15.174,0,0,0,8.269,2.419A15.235,15.235,0,0,0,23.609,54.024c0-.238-.008-.468-.02-.7A10.752,10.752,0,0,0,26.291,50.529Z" transform="translate(0 -48)" fill="#03a9f4"/>
</svg>
