<svg xmlns="http://www.w3.org/2000/svg" width="16.384" height="16.384" viewBox="0 0 16.384 16.384">
  <g id="user_19_" data-name="user (19)" transform="translate(0.5 0.5)">
    <g id="Group_2834" data-name="Group 2834">
      <path id="Path_18910" data-name="Path 18910" d="M13.131,9.945a7.662,7.662,0,0,0-2.923-1.833,4.447,4.447,0,1,0-5.032,0A7.7,7.7,0,0,0,0,15.384H1.2a6.49,6.49,0,0,1,12.98,0h1.2A7.642,7.642,0,0,0,13.131,9.945ZM7.692,7.692a3.245,3.245,0,1,1,3.245-3.245A3.249,3.249,0,0,1,7.692,7.692Z" transform="translate(0)" fill="#6b1d57" stroke="#6b1d57" stroke-width="1"/>
    </g>
  </g>
</svg>
