<svg id="visible" xmlns="http://www.w3.org/2000/svg" width="15.007" height="11.255" viewBox="0 0 15.007 11.255">
  <path id="Path_18917" data-name="Path 18917" d="M7.5,64.444A8.009,8.009,0,0,0,0,70.072,8.008,8.008,0,0,0,7.5,75.7a8.009,8.009,0,0,0,7.5-5.628A8.009,8.009,0,0,0,7.5,64.444Zm0,9.38a3.752,3.752,0,1,1,3.752-3.752A3.752,3.752,0,0,1,7.5,73.824Z" transform="translate(0 -64.444)" fill="#8fb946"/>
  <path id="Path_18918" data-name="Path 18918" d="M196.536,193.883a1.876,1.876,0,1,1-2.653,0,1.876,1.876,0,0,1,2.653,0" transform="translate(-187.706 -189.582)" fill="#8fb946"/>
</svg>
