<svg width="33" height="28" viewBox="0 0 33 28" fill="none" xmlns="http://www.w3.org/2000/svg">
<g id="Group 42975">
<rect id="Rectangle 3412" y="5.79297" width="33" height="22.2048" rx="4.3617" fill="#B3D5EB"/>
<g id="Group 42972">
<path id="Union" d="M8.38138 7.37284C7.82395 7.37284 7.37207 6.92096 7.37207 6.36353V1.41539C7.37207 0.827855 7.84836 0.351562 8.4359 0.351562H24.6513C25.2389 0.351562 25.7152 0.827855 25.7152 1.41539V6.36353C25.7152 6.92096 25.2633 7.37284 24.7058 7.37284C24.1484 7.37284 23.6965 6.92096 23.6965 6.36353V3.34624C23.6965 2.75871 23.2202 2.28241 22.6327 2.28241H10.4545C9.86698 2.28241 9.39069 2.75871 9.39069 3.34624V6.36353C9.39069 6.92096 8.9388 7.37284 8.38138 7.37284Z" fill="#B3D5EB"/>
<rect id="Rectangle 3413" x="10.0928" width="12.9894" height="2.63298" fill="#0073BB"/>
</g>
<g id="Group 42974">
<circle id="Ellipse 95" cx="16.5443" cy="16.8959" r="6.62633" fill="#D62049"/>
<g id="Vector">
<path d="M15.3985 12.2012H17.765V21.6674H15.3985V12.2012Z" fill="white"/>
<path d="M11.8486 18.1175V15.751H21.3148V18.1175H11.8486Z" fill="white"/>
</g>
</g>
</g>
</svg>
