<svg width="35" height="31" viewBox="0 0 35 31" fill="none" xmlns="http://www.w3.org/2000/svg">
<g id="Group 42980">
<path id="Vector" d="M31.5081 16.7484L17.3487 30.666L3.18941 16.7484C2.25547 15.8465 1.51982 14.7624 1.02879 13.5644C0.537751 12.3664 0.301967 11.0805 0.336281 9.78765C0.370596 8.49479 0.674265 7.22298 1.22817 6.05232C1.78207 4.88166 2.57421 3.8375 3.55469 2.98559C4.53518 2.13368 5.68278 1.49248 6.92523 1.10237C8.16767 0.712258 9.47805 0.581684 10.7738 0.718869C12.0696 0.856054 13.3228 1.25803 14.4543 1.89947C15.5859 2.54092 16.5714 3.40795 17.3487 4.44596C18.1295 3.41549 19.1161 2.55603 20.2469 1.92139C21.3777 1.28675 22.6283 0.890587 23.9204 0.757689C25.2126 0.624791 26.5185 0.758022 27.7564 1.14904C28.9942 1.54007 30.1375 2.18046 31.1145 3.03015C32.0916 3.87984 32.8814 4.92053 33.4345 6.08709C33.9877 7.25365 34.2922 8.52096 34.3292 9.80971C34.3661 11.0985 34.1346 12.3809 33.6492 13.5768C33.1638 14.7727 32.4349 15.8562 31.5081 16.7597" fill="#D62049"/>
<g id="Mask group">
<mask id="mask0_7058_11478" style="mask-type:alpha" maskUnits="userSpaceOnUse" x="0" y="0" width="35" height="31">
<path id="Vector_2" d="M31.5081 16.7484L17.3487 30.666L3.18941 16.7484C2.25547 15.8465 1.51982 14.7624 1.02879 13.5644C0.537751 12.3664 0.301967 11.0805 0.336281 9.78765C0.370596 8.49479 0.674265 7.22298 1.22817 6.05232C1.78207 4.88166 2.57421 3.8375 3.55469 2.98559C4.53518 2.13368 5.68278 1.49248 6.92523 1.10237C8.16767 0.712258 9.47805 0.581684 10.7738 0.718869C12.0696 0.856054 13.3228 1.25803 14.4543 1.89947C15.5859 2.54092 16.5714 3.40795 17.3487 4.44596C18.1295 3.41549 19.1161 2.55603 20.2469 1.92139C21.3777 1.28675 22.6283 0.890587 23.9204 0.757689C25.2126 0.624791 26.5185 0.758022 27.7564 1.14904C28.9942 1.54007 30.1375 2.18046 31.1145 3.03015C32.0916 3.87984 32.8814 4.92053 33.4345 6.08709C33.9877 7.25365 34.2922 8.52096 34.3292 9.80971C34.3661 11.0985 34.1346 12.3809 33.6492 13.5768C33.1638 14.7727 32.4349 15.8562 31.5081 16.7597" fill="#D62049"/>
</mask>
<g mask="url(#mask0_7058_11478)">
<path id="Vector 191 (Stroke)" fill-rule="evenodd" clip-rule="evenodd" d="M15.1929 8.12109L17.7577 17.1886L20.223 9.19907L22.638 14.5353H34.3599V16.1287H21.6102L20.5055 13.6877L17.6913 22.808L14.9765 13.2103L12.387 20.0763L10.561 14.4275L9.43913 16.9064H-0.607422V15.313H8.41127L10.8091 10.0148L12.5028 15.254L15.1929 8.12109Z" fill="white"/>
</g>
</g>
<circle id="Ellipse 59" cx="26.3952" cy="24.7292" r="5.72917" fill="#4D9DCF"/>
<g id="Vector_3">
<path d="M25.5809 20.791H27.627V28.9755H25.5809V20.791Z" fill="white"/>
<path d="M22.5117 25.9063V23.8602H30.6962V25.9063H22.5117Z" fill="white"/>
</g>
</g>
</svg>
