<svg width="23" height="28" viewBox="0 0 23 28" fill="none" xmlns="http://www.w3.org/2000/svg">
<g id="Money">
<path id="Vector" fill-rule="evenodd" clip-rule="evenodd" d="M15.0002 7.91658C18.4114 10.9806 22.1719 16.6747 22.1719 20.9023C22.1719 26.968 17.2085 27.7148 11.0859 27.7148C4.96335 27.7148 0 26.9683 0 20.9023C0 16.6607 3.78593 10.9419 7.20607 7.88545C6.00782 6.18421 4.77814 3.77554 4.6733 2.03237C4.64915 1.34492 4.72258 0.659448 5.34403 0.233811C6.8674 -0.809803 7.85167 2.56777 9.58307 2.01664C10.9192 1.591 10.9626 0.162708 12.4985 0.538212C12.901 0.636512 13.2916 0.985802 13.6806 0.898971C14.1866 0.785927 14.6903 0.195475 15.2185 0.0703064C16.5315 -0.240976 17.3957 0.506756 17.5012 1.79415C17.5419 2.9495 16.5659 5.28739 16.0232 6.312C15.8035 6.7265 15.4437 7.30483 15.0002 7.9169V7.91658Z" fill="#E26380"/>
<path id="`" d="M9.21586 13.3042H14.2732V13.3165C13.9753 13.8329 13.8057 14.1095 13.7643 14.1464H12.4178C12.6039 14.3923 12.7301 14.6895 12.7963 15.0378H14.2359C14.2525 15.0419 14.2607 15.0501 14.2607 15.0624C13.9381 15.6034 13.7726 15.876 13.7643 15.8801H12.8335C12.8128 16.1547 12.6949 16.4907 12.4798 16.8883C12.1861 17.2858 11.9089 17.544 11.6483 17.6629C11.1602 17.9252 10.6927 18.0563 10.2459 18.0563V18.0686C10.2459 18.1055 10.3556 18.2674 10.5748 18.5543L13.0693 21.9417V22.1015C13.0693 22.1179 13.0611 22.1261 13.0445 22.1261H11.9462C9.96877 19.54 8.98006 18.2408 8.98006 18.2285V17.4416L8.99247 17.4108C9.16622 17.4395 9.37099 17.4539 9.60679 17.4539C10.7113 17.4539 11.4001 17.0502 11.6731 16.2428C11.7145 16.1239 11.7352 16.003 11.7352 15.8801H8.73185C8.7153 15.8801 8.70703 15.8698 8.70703 15.8493C9.03798 15.3083 9.20759 15.0378 9.21586 15.0378H11.6049V15.0255C11.4642 14.7141 11.1995 14.4723 10.8106 14.3001C10.5293 14.1977 10.277 14.1464 10.0536 14.1464H8.71944V14.1157C9.04212 13.5747 9.20759 13.3042 9.21586 13.3042Z" fill="#FCF1F4"/>
<path id="Vector_2" d="M6.70908 8.55697C6.41704 8.43803 6.27979 8.11135 6.40216 7.82759C6.52453 7.54383 6.86089 7.41047 7.15293 7.52942C8.51755 8.08612 10.1894 8.31057 11.6632 8.26961C13.1693 8.228 14.4242 7.93179 14.8429 7.45307C15.0469 7.21846 15.4084 7.1893 15.6499 7.38786C15.8913 7.5861 15.9214 7.93736 15.717 8.17164C15.0863 8.8925 13.5064 9.32994 11.6946 9.38007C10.072 9.42496 8.22551 9.17561 6.70941 8.55697H6.70908Z" fill="#FCF1F4"/>
</g>
</svg>
