<svg width="40" height="41" viewBox="0 0 40 41" fill="none" xmlns="http://www.w3.org/2000/svg">
<circle cx="20" cy="20.7319" r="20" fill="#EDFFFC"/>
<path d="M21.2 30.5256C23.6207 30.2176 25.8334 28.9994 27.3882 27.1185C28.943 25.2377 29.7233 22.8354 29.5705 20.4C29.4176 17.9645 28.3432 15.6786 26.5655 14.0069C24.7878 12.3351 22.4403 11.403 20 11.4C17.5568 11.3982 15.2047 12.328 13.4232 14C11.6417 15.672 10.5647 17.9604 10.4117 20.3988C10.2587 22.8373 11.0412 25.2423 12.5998 27.1239C14.1583 29.0055 16.3757 30.222 18.8 30.5256V23.4H16.4V21H18.8V19.0152C18.8 17.4108 18.968 16.8288 19.28 16.242C19.5873 15.6614 20.0624 15.1868 20.6432 14.88C21.1016 14.634 21.6716 14.4864 22.6676 14.4228C23.0624 14.3976 23.5736 14.4288 24.2012 14.5188V16.7988H23.6C22.4996 16.7988 22.0448 16.8504 21.7736 16.9956C21.6118 17.0788 21.48 17.2106 21.3968 17.3724C21.2528 17.6436 21.2 17.9124 21.2 19.014V21H24.2L23.6 23.4H21.2V30.5256ZM20 33C13.3724 33 8 27.6276 8 21C8 14.3724 13.3724 9 20 9C26.6276 9 32 14.3724 32 21C32 27.6276 26.6276 33 20 33Z" fill="#0086D6"/>
</svg>
