<svg width="40" height="41" viewBox="0 0 40 41" fill="none" xmlns="http://www.w3.org/2000/svg">
<circle cx="20" cy="20.7158" r="20" fill="#EDFFFC"/>
<path d="M20 17.4C19.0452 17.4 18.1295 17.7793 17.4544 18.4544C16.7793 19.1295 16.4 20.0452 16.4 21C16.4 21.9548 16.7793 22.8705 17.4544 23.5456C18.1295 24.2207 19.0452 24.6 20 24.6C20.9548 24.6 21.8705 24.2207 22.5456 23.5456C23.2207 22.8705 23.6 21.9548 23.6 21C23.6 20.0452 23.2207 19.1295 22.5456 18.4544C21.8705 17.7793 20.9548 17.4 20 17.4ZM20 15C21.5913 15 23.1174 15.6321 24.2426 16.7574C25.3679 17.8826 26 19.4087 26 21C26 22.5913 25.3679 24.1174 24.2426 25.2426C23.1174 26.3679 21.5913 27 20 27C18.4087 27 16.8826 26.3679 15.7574 25.2426C14.6321 24.1174 14 22.5913 14 21C14 19.4087 14.6321 17.8826 15.7574 16.7574C16.8826 15.6321 18.4087 15 20 15ZM27.8 14.7C27.8 15.0978 27.642 15.4794 27.3607 15.7607C27.0794 16.042 26.6978 16.2 26.3 16.2C25.9022 16.2 25.5206 16.042 25.2393 15.7607C24.958 15.4794 24.8 15.0978 24.8 14.7C24.8 14.3022 24.958 13.9206 25.2393 13.6393C25.5206 13.358 25.9022 13.2 26.3 13.2C26.6978 13.2 27.0794 13.358 27.3607 13.6393C27.642 13.9206 27.8 14.3022 27.8 14.7ZM20 11.4C17.0312 11.4 16.5464 11.4084 15.1652 11.4696C14.2244 11.514 13.5932 11.64 13.0076 11.868C12.4868 12.0696 12.1112 12.3108 11.7116 12.7116C11.336 13.0745 11.0472 13.5175 10.8668 14.0076C10.6388 14.5956 10.5128 15.2256 10.4696 16.1652C10.4072 17.49 10.4 17.9532 10.4 21C10.4 23.9688 10.4084 24.4536 10.4696 25.8348C10.514 26.7744 10.64 27.4068 10.8668 27.9912C11.0708 28.5132 11.3108 28.8888 11.7092 29.2872C12.1136 29.6904 12.4892 29.9316 13.0052 30.1308C13.598 30.36 14.2292 30.4872 15.1652 30.5304C16.49 30.5928 16.9532 30.6 20 30.6C22.9688 30.6 23.4536 30.5916 24.8348 30.5304C25.7732 30.486 26.4056 30.36 26.9912 30.1332C27.5108 29.9304 27.8888 29.6892 28.2872 29.2908C28.6916 28.8864 28.9328 28.5108 29.132 27.9948C29.36 27.4032 29.4872 26.7708 29.5304 25.8348C29.5928 24.51 29.6 24.0468 29.6 21C29.6 18.0312 29.5916 17.5464 29.5304 16.1652C29.486 15.2268 29.36 14.5932 29.132 14.0076C28.9512 13.518 28.6629 13.0752 28.2884 12.7116C27.9257 12.3358 27.4826 12.047 26.9924 11.8668C26.4044 11.6388 25.7732 11.5128 24.8348 11.4696C23.51 11.4072 23.0468 11.4 20 11.4ZM20 9C23.2604 9 23.6672 9.012 24.9464 9.072C26.2244 9.132 27.0944 9.3324 27.86 9.63C28.652 9.9348 29.3192 10.3476 29.9864 11.0136C30.5966 11.6135 31.0687 12.3391 31.37 13.14C31.6664 13.9044 31.868 14.7756 31.928 16.0536C31.9844 17.3328 32 17.7396 32 21C32 24.2604 31.988 24.6672 31.928 25.9464C31.868 27.2244 31.6664 28.0944 31.37 28.86C31.0696 29.6613 30.5973 30.3871 29.9864 30.9864C29.3864 31.5964 28.6608 32.0685 27.86 32.37C27.0956 32.6664 26.2244 32.868 24.9464 32.928C23.6672 32.9844 23.2604 33 20 33C16.7396 33 16.3328 32.988 15.0536 32.928C13.7756 32.868 12.9056 32.6664 12.14 32.37C11.3388 32.0694 10.613 31.5971 10.0136 30.9864C9.40329 30.3866 8.93112 29.661 8.63 28.86C8.3324 28.0956 8.132 27.2244 8.072 25.9464C8.0156 24.6672 8 24.2604 8 21C8 17.7396 8.012 17.3328 8.072 16.0536C8.132 14.7744 8.3324 13.9056 8.63 13.14C8.93028 12.3386 9.40256 11.6128 10.0136 11.0136C10.6132 10.4031 11.3389 9.93088 12.14 9.63C12.9056 9.3324 13.7744 9.132 15.0536 9.072C16.3328 9.0156 16.7396 9 20 9Z" fill="#0086D6"/>
</svg>
