<svg width="108" height="19" viewBox="0 0 108 19" fill="none" xmlns="http://www.w3.org/2000/svg">
<path d="M19.1306 6.58663C19.0729 6.41682 18.9668 6.26761 18.8253 6.15742C18.6838 6.04723 18.5132 5.98089 18.3344 5.96658L13.1053 5.55107L10.8424 0.542056C10.7704 0.380725 10.6532 0.243699 10.5049 0.147514C10.3567 0.0513295 10.1838 9.71158e-05 10.0071 1.37932e-07C9.83044 -9.684e-05 9.6575 0.0509458 9.50917 0.146968C9.36084 0.24299 9.24348 0.379887 9.17124 0.541138L6.90842 5.55107L1.67927 5.96658C1.50358 5.9805 1.33562 6.04474 1.19548 6.15161C1.05534 6.25849 0.948961 6.40348 0.889066 6.56923C0.829171 6.73498 0.818296 6.91448 0.857744 7.08625C0.897192 7.25802 0.985291 7.41479 1.1115 7.5378L4.97581 11.3049L3.60913 17.2229C3.56763 17.402 3.58093 17.5895 3.6473 17.761C3.71368 17.9324 3.83006 18.08 3.98135 18.1845C4.13263 18.2891 4.31184 18.3457 4.49571 18.3471C4.67959 18.3485 4.85964 18.2946 5.0125 18.1924L10.0068 14.8628L15.0012 18.1924C15.1574 18.2961 15.3417 18.3495 15.5292 18.3454C15.7167 18.3413 15.8984 18.2799 16.0499 18.1694C16.2015 18.0589 16.3156 17.9047 16.3768 17.7274C16.4381 17.5502 16.4436 17.3584 16.3926 17.1779L14.715 11.3076L18.8756 7.56348C19.148 7.31766 19.248 6.93426 19.1306 6.58663Z" fill="#FFC942"/>
<path d="M41.1452 6.58663C41.0876 6.41682 40.9814 6.26761 40.84 6.15742C40.6985 6.04723 40.5278 5.98089 40.3491 5.96658L35.1199 5.55107L32.8571 0.542056C32.785 0.380725 32.6678 0.243699 32.5196 0.147514C32.3714 0.0513295 32.1985 9.71158e-05 32.0218 1.37932e-07C31.8451 -9.684e-05 31.6721 0.0509458 31.5238 0.146968C31.3755 0.24299 31.2581 0.379887 31.1859 0.541138L28.9231 5.55107L23.6939 5.96658C23.5182 5.9805 23.3503 6.04474 23.2101 6.15161C23.07 6.25849 22.9636 6.40348 22.9037 6.56923C22.8438 6.73498 22.8329 6.91448 22.8724 7.08625C22.9118 7.25802 22.9999 7.41479 23.1262 7.5378L26.9905 11.3049L25.6238 17.2229C25.5823 17.402 25.5956 17.5895 25.662 17.761C25.7283 17.9324 25.8447 18.08 25.996 18.1845C26.1473 18.2891 26.3265 18.3457 26.5104 18.3471C26.6942 18.3485 26.8743 18.2946 27.0271 18.1924L32.0215 14.8628L37.0158 18.1924C37.1721 18.2961 37.3563 18.3495 37.5438 18.3454C37.7313 18.3413 37.913 18.2799 38.0646 18.1694C38.2161 18.0589 38.3302 17.9047 38.3915 17.7274C38.4527 17.5502 38.4582 17.3584 38.4073 17.1779L36.7296 11.3076L40.8902 7.56348C41.1626 7.31766 41.2626 6.93426 41.1452 6.58663Z" fill="#FFC942"/>
<path d="M63.1555 6.58663C63.0978 6.41682 62.9917 6.26761 62.8502 6.15742C62.7087 6.04723 62.5381 5.98089 62.3593 5.96658L57.1302 5.55107L54.8673 0.542056C54.7953 0.380725 54.6781 0.243699 54.5298 0.147514C54.3816 0.0513295 54.2087 9.71158e-05 54.032 1.37932e-07C53.8553 -9.684e-05 53.6824 0.0509458 53.5341 0.146968C53.3857 0.24299 53.2684 0.379887 53.1961 0.541138L50.9333 5.55107L45.7042 5.96658C45.5285 5.9805 45.3605 6.04474 45.2204 6.15161C45.0802 6.25849 44.9739 6.40348 44.914 6.56923C44.8541 6.73498 44.8432 6.91448 44.8826 7.08625C44.9221 7.25802 45.0102 7.41479 45.1364 7.5378L49.0007 11.3049L47.634 17.2229C47.5925 17.402 47.6058 17.5895 47.6722 17.761C47.7386 17.9324 47.855 18.08 48.0062 18.1845C48.1575 18.2891 48.3367 18.3457 48.5206 18.3471C48.7045 18.3485 48.8845 18.2946 49.0374 18.1924L54.0317 14.8628L59.0261 18.1924C59.1823 18.2961 59.3666 18.3495 59.5541 18.3454C59.7416 18.3413 59.9233 18.2799 60.0748 18.1694C60.2264 18.0589 60.3405 17.9047 60.4017 17.7274C60.463 17.5502 60.4685 17.3584 60.4175 17.1779L58.7399 11.3076L62.9005 7.56348C63.1729 7.31766 63.2729 6.93426 63.1555 6.58663Z" fill="#FFC942"/>
<path d="M85.1716 6.58663C85.1139 6.41682 85.0078 6.26761 84.8663 6.15742C84.7248 6.04723 84.5542 5.98089 84.3754 5.96658L79.1463 5.55107L76.8835 0.542056C76.8114 0.380725 76.6942 0.243699 76.546 0.147514C76.3977 0.0513295 76.2248 9.71158e-05 76.0482 1.37932e-07C75.8715 -9.684e-05 75.6985 0.0509458 75.5502 0.146968C75.4019 0.24299 75.2845 0.379887 75.2123 0.541138L72.9494 5.55107L67.7203 5.96658C67.5446 5.9805 67.3766 6.04474 67.2365 6.15161C67.0964 6.25849 66.99 6.40348 66.9301 6.56923C66.8702 6.73498 66.8593 6.91448 66.8988 7.08625C66.9382 7.25802 67.0263 7.41479 67.1525 7.5378L71.0168 11.3049L69.6501 17.2229C69.6086 17.402 69.6219 17.5895 69.6883 17.761C69.7547 17.9324 69.8711 18.08 70.0224 18.1845C70.1736 18.2891 70.3529 18.3457 70.5367 18.3471C70.7206 18.3485 70.9007 18.2946 71.0535 18.1924L76.0479 14.8628L81.0422 18.1924C81.1984 18.2961 81.3827 18.3495 81.5702 18.3454C81.7577 18.3413 81.9394 18.2799 82.091 18.1694C82.2425 18.0589 82.3566 17.9047 82.4178 17.7274C82.4791 17.5502 82.4846 17.3584 82.4336 17.1779L80.756 11.3076L84.9166 7.56348C85.189 7.31766 85.289 6.93426 85.1716 6.58663Z" fill="#FFC942"/>
<path d="M93.0324 11.305L91.6657 17.223C91.6234 17.4022 91.6361 17.59 91.7022 17.7619C91.7682 17.9338 91.8846 18.0817 92.0361 18.1864C92.1875 18.2911 92.367 18.3477 92.5512 18.3488C92.7353 18.3499 92.9155 18.2954 93.0682 18.1925L98.0625 14.863L103.057 18.1925C103.213 18.2963 103.397 18.3497 103.585 18.3456C103.772 18.3415 103.954 18.28 104.106 18.1695C104.257 18.0591 104.371 17.9048 104.432 17.7276C104.494 17.5503 104.499 17.3586 104.448 17.1781L102.771 11.3078L106.931 7.56363C107.064 7.44365 107.16 7.28724 107.205 7.11374C107.25 6.94025 107.244 6.75728 107.186 6.58746C107.129 6.41764 107.022 6.26843 106.881 6.15827C106.739 6.04811 106.569 5.98184 106.39 5.96765L101.161 5.55122L98.8981 0.542207C98.826 0.380916 98.7087 0.243955 98.5604 0.147851C98.4121 0.051748 98.2392 0.000610352 98.0625 0.000610352C97.8858 0.000610352 97.7129 0.051748 97.5646 0.147851C97.4163 0.243955 97.2991 0.380916 97.2269 0.542207L94.9641 5.55122L89.7349 5.96673C89.5592 5.98065 89.3913 6.04489 89.2511 6.15176C89.111 6.25864 89.0046 6.40363 88.9447 6.56938C88.8848 6.73513 88.874 6.91463 88.9134 7.0864C88.9529 7.25817 89.041 7.41494 89.1672 7.53795L93.0324 11.305ZM95.6493 7.33708C95.813 7.32418 95.9702 7.26747 96.1045 7.17291C96.2388 7.07834 96.3451 6.94939 96.4124 6.79958L98.0625 3.14807L99.7126 6.79958C99.7799 6.94939 99.8863 7.07834 100.021 7.17291C100.155 7.26747 100.312 7.32418 100.476 7.33708L104.119 7.62601L101.119 10.3263C100.858 10.5612 100.755 10.9225 100.85 11.2601L101.999 15.2822L98.5725 12.9973C98.4221 12.8964 98.245 12.8425 98.0639 12.8425C97.8827 12.8425 97.7057 12.8964 97.5553 12.9973L93.9744 15.3849L94.9375 11.2151C94.9728 11.0618 94.9681 10.9019 94.9237 10.7509C94.8794 10.5999 94.7969 10.4629 94.6843 10.3529L91.8978 7.6361L95.6493 7.33708Z" fill="#FFC942"/>
</svg>
