<svg width="40" height="41" viewBox="0 0 40 41" fill="none" xmlns="http://www.w3.org/2000/svg">
<circle cx="20" cy="20.7158" r="20" fill="#EDFFFC"/>
<path d="M24.6369 13.3357C23.7276 13.3356 22.8545 13.6836 22.2056 14.3051C21.5567 14.9265 21.1838 15.7716 21.1672 16.6584L21.1337 18.4966C21.1317 18.5953 21.1084 18.6925 21.0652 18.7818C21.022 18.8711 20.96 18.9504 20.8832 19.0147C20.8063 19.0789 20.7165 19.1266 20.6194 19.1546C20.5224 19.1826 20.4203 19.1902 20.3201 19.177L18.4524 18.9296C15.9948 18.6028 13.6402 17.4988 11.3812 15.6629C10.6657 19.526 12.0632 22.2022 15.4289 24.2668L17.5191 25.5482C17.6184 25.6091 17.7009 25.6928 17.7594 25.792C17.8179 25.8912 17.8506 26.0028 17.8546 26.1172C17.8586 26.2315 17.8338 26.3451 17.7825 26.448C17.7311 26.5508 17.6546 26.6398 17.5598 26.7072L15.655 28.0645C16.7881 28.1334 17.8637 28.0844 18.7563 27.9116C24.4012 26.8122 28.1545 22.669 28.1545 15.8345C28.1545 15.2766 26.9437 13.3357 24.6369 13.3357ZM18.7742 16.6153C18.7951 15.4902 19.1558 14.3962 19.811 13.4702C20.4663 12.5441 21.3871 11.8272 22.458 11.4092C23.529 10.9912 24.7026 10.8907 25.8319 11.1203C26.9612 11.3498 27.9959 11.8992 28.8066 12.6996C29.6573 12.6938 30.3812 12.9039 32 11.9469C31.5992 13.8609 31.4018 14.6919 30.5475 15.8345C30.5475 24.7535 24.9277 29.0904 19.2253 30.2003C15.3152 30.9613 9.62959 29.7113 8 28.0517C8.83035 27.9887 12.2044 27.635 14.1546 26.2427C12.5047 25.1818 5.93729 21.412 10.253 11.2769C12.2786 13.5843 14.3329 15.1552 16.4148 15.9885C17.8003 16.5429 18.1401 16.5312 18.7754 16.6164L18.7742 16.6153Z" fill="#0086D6"/>
</svg>
