<svg width="21" height="20" viewBox="0 0 21 20" fill="none" xmlns="http://www.w3.org/2000/svg">
<g id="shopping_cart">
<mask id="mask0_889_3" style="mask-type:alpha" maskUnits="userSpaceOnUse" x="0" y="0" width="21" height="20">
<rect id="Bounding box" width="20.8333" height="20" fill="#D9D9D9"/>
</mask>
<g mask="url(#mask0_889_3)">
<path id="shopping_cart_2" d="M10.055 18.3333C9.55765 18.3333 9.13206 18.1703 8.77821 17.8442C8.42375 17.5175 8.24652 17.125 8.24652 16.6667C8.24652 16.2083 8.42375 15.8158 8.77821 15.4892C9.13206 15.1631 9.55765 15 10.055 15C10.5523 15 10.9779 15.1631 11.3317 15.4892C11.6862 15.8158 11.8634 16.2083 11.8634 16.6667C11.8634 17.125 11.6862 17.5175 11.3317 17.8442C10.9779 18.1703 10.5523 18.3333 10.055 18.3333ZM19.0972 18.3333C18.5999 18.3333 18.1743 18.1703 17.8205 17.8442C17.466 17.5175 17.2888 17.125 17.2888 16.6667C17.2888 16.2083 17.466 15.8158 17.8205 15.4892C18.1743 15.1631 18.5999 15 19.0972 15C19.5945 15 20.0204 15.1631 20.3749 15.4892C20.7287 15.8158 20.9057 16.2083 20.9057 16.6667C20.9057 17.125 20.7287 17.5175 20.3749 17.8442C20.0204 18.1703 19.5945 18.3333 19.0972 18.3333ZM9.28638 5.00001L11.4565 9.16667H17.7861L20.2727 5.00001H9.28638ZM8.42737 3.33334H21.7647C22.1113 3.33334 22.375 3.47556 22.5559 3.76C22.7367 4.04501 22.7443 4.33334 22.5785 4.62501L19.3685 9.95834C19.2027 10.2361 18.9803 10.4514 18.7012 10.6042C18.4227 10.7569 18.1176 10.8333 17.7861 10.8333H11.0496L10.055 12.5H20.9057V14.1667H10.055C9.3768 14.1667 8.86441 13.8922 8.51779 13.3433C8.17117 12.795 8.1561 12.25 8.47258 11.7083L9.69328 9.66667L6.43807 3.33334H4.62962V1.66667H7.56835L8.42737 3.33334Z" fill="#D9D9D9"/>
</g>
</g>
</svg>
